<?xml version="1.0" encoding="UTF-8"?>
<svg version="1.1" viewBox="0 0 472.26 544.97" xmlns="http://www.w3.org/2000/svg" xmlns:cc="http://creativecommons.org/ns#" xmlns:dc="http://purl.org/dc/elements/1.1/" xmlns:rdf="http://www.w3.org/1999/02/22-rdf-syntax-ns#">
<title>paisley floral</title>
<metadata>image/svg+xmlpaisley6November 10, 2010Algot Runemanruneman.orgruneman.orgPaisley motifpaisleymotifdecoration
<rdf:RDF>
<cc:Work rdf:about="">
<dc:format>image/svg+xml</dc:format>
<dc:type rdf:resource="http://purl.org/dc/dcmitype/StillImage"/>
<dc:title>paisley floral</dc:title>
<dc:date>08/04/2013</dc:date>
<dc:creator>
<cc:Agent>
<dc:title>edited by Paul Sherman</dc:title>
</cc:Agent>
</dc:creator>
<dc:rights>
<cc:Agent>
<dc:title>PD</dc:title>
</cc:Agent>
</dc:rights>
<dc:publisher>
<cc:Agent>
<dc:title>WPClipart</dc:title>
</cc:Agent>
</dc:publisher>
<dc:subject>
<rdf:Bag>
<rdf:li>paisley</rdf:li>
</rdf:Bag>
</dc:subject>
<cc:license rdf:resource="http://creativecommons.org/licenses/publicdomain/"/>
</cc:Work>
<cc:License rdf:about="http://creativecommons.org/licenses/publicdomain/">
<cc:permits rdf:resource="http://creativecommons.org/ns#Reproduction"/>
<cc:permits rdf:resource="http://creativecommons.org/ns#Distribution"/>
<cc:permits rdf:resource="http://creativecommons.org/ns#DerivativeWorks"/>
</cc:License>
</rdf:RDF>
</metadata>
<g transform="translate(-85.771 -56.343)">
<title>Layer 1</title>
<path d="m330.3 143.33c-60.77 4.512-118.07 44.751-140.87 101.58-31.522 72.186-18.303 162.23 33.848 221.45 25.036 29.048 62.564 49.841 101.85 47.971 34.483-0.57299 71.269-28.487 68.755-65.432-0.716-14.366-7.623-27.67-16.819-38.521-18.223-22.81-42.221-40.025-61.767-61.647-22.733-23.872-42.253-53.163-46.33-86.655-4.809-35.025 7.465-72.307 33.307-96.544 8.599-8.672 18.45-16.144 29.059-22.289l-0.64298 0.05-0.384 0.03v1e-3z" fill="#7f003f" stroke="#7021c4" stroke-width="2"/>
<g stroke="#000">
<path d="m357.91 116.59c-1.675 2.4432-4.0662 4.389-6.799 5.5324-2.7327 1.1433-5.7971 1.4803-8.7129 0.95799-4.3009-0.77054-8.2224-3.4547-10.497-7.1853 3.326-3.4666 8.1229-5.4737 12.927-5.4086 4.9582 0.0671 9.8454 2.3472 13.082 6.1035" fill="#ff7f00" stroke-width="3.2001"/>
<path d="m331.87 116.91c-1.4045 2.6081-3.5742 4.7982-6.1692 6.227-2.595 1.4286-5.6058 2.091-8.5608 1.883-4.3586-0.30677-8.5443-2.5568-11.204-6.0231 2.9368-3.802 7.4918-6.3099 12.275-6.7583 4.937-0.46281 10.04 1.2823 13.659 4.6714" fill="#7f0000" stroke-width="3.2001"/>
<path d="m306.03 120.25c-1.0485 2.7705-2.9108 5.2273-5.2949 6.9856-2.3841 1.7582-5.2815 2.8115-8.238 2.9947-4.361 0.27032-8.8067-1.4086-11.9-4.4941 2.4102-4.1559 6.595-7.2421 11.277-8.3169 4.8329-1.1093 10.121-0.0518 14.156 2.8307" fill="#ff7f00" stroke-width="3.2001"/>
<path d="m280.83 126.87c-0.67169 2.8851-2.1915 5.5674-4.3212 7.6264-2.1297 2.0589-4.8616 3.4874-7.7678 4.0614-4.2866 0.84653-8.9157-0.22752-12.392-2.8753 1.8375-4.4389 5.5757-8.0532 10.074-9.7398 4.643-1.7408 10.025-1.3944 14.406 0.92732" fill="#7f0000" stroke-width="3.2001"/>
<path d="m256.68 136.68c-0.27179 2.9497-1.4114 5.8142-3.2403 8.1446-1.8289 2.3302-4.3404 4.118-7.1411 5.0831-4.131 1.4234-8.8634 0.9909-12.668-1.1579 1.2147-4.6481 4.425-8.7385 8.6512-11.023 4.3621-2.3579 9.7408-2.749 14.398-1.0467" fill="#ff7f00" stroke-width="3.2001"/>
<path d="m234.04 149.62c0.15157 2.9583-0.56795 5.9561-2.0458 8.5234-1.4779 2.5672-3.7089 4.6949-6.3433 6.0494-3.8859 1.9979-8.6315 2.2446-12.704 0.66028 0.53954-4.7738 3.1337-9.2802 6.991-12.144 3.9812-2.9558 9.2492-4.1098 14.102-3.089" fill="#7f0000" stroke-width="3.2001"/>
<path d="m213.39 165.58c0.59493 2.9019 0.33461 5.9737-0.74023 8.7341-1.0749 2.7603-2.9603 5.1994-5.3609 6.9348-3.541 2.5598-8.1955 3.5177-12.46 2.564-0.18484-4.8006 1.7018-9.646 5.0844-13.057 3.4912-3.5212 8.5256-5.4546 13.476-5.1755" fill="#ff7f00" stroke-width="3.2001"/>
<path d="m195.39 184.45c0.97597 2.7969 1.1268 5.8761 0.4289 8.755-0.69785 2.8789-2.2419 5.5472-4.3902 7.5867-3.1688 3.0084-7.6545 4.5773-12.007 4.1997-0.82225-4.7334 0.40276-9.7868 3.3011-13.618 2.9916-3.9546 7.7238-6.5409 12.668-6.9232" fill="#7f0000" stroke-width="3.2001"/>
<path d="m180.22 205.62c1.2643 2.6789 1.7377 5.7252 1.3461 8.6616-0.39168 2.9362-1.6469 5.752-3.5691 8.0059-2.8354 3.3246-7.1314 5.3559-11.5 5.4376-1.3148-4.6208-0.62741-9.775 1.8526-13.89 2.5596-4.2469 6.9941-7.316 11.87-8.2155" fill="#ff7f00" stroke-width="3.2001"/>
<path d="m167.52 228.36c1.592 2.4982 2.4457 5.4605 2.4274 8.4228-0.0183 2.9622-0.9086 5.9138-2.5313 8.392-2.3936 3.6555-6.3993 6.2123-10.723 6.844-1.8869-4.4182-1.8547-9.6179 0.0866-14.012 2.0038-4.5357 6.016-8.1394 10.74-9.6464" fill="#7f0000" stroke-width="3.2001"/>
<path d="m157.65 252.48c1.8842 2.2858 3.0921 5.1222 3.4345 8.0647 0.34238 2.9424-0.18197 5.9804-1.491 8.6377-1.9308 3.9197-5.5955 6.945-9.8099 8.0984-2.4107-4.1557-3.0117-9.3206-1.6196-13.919 1.4368-4.7459 4.9805-8.8111 9.486-10.882" fill="#ff7f00" stroke-width="3.2001"/>
<path d="m150.65 277.58c2.1432 2.045 3.6804 4.7173 4.371 7.598 0.69056 2.8806 0.53196 5.9595-0.45105 8.7538-1.45 4.1218-4.7281 7.5623-8.775 9.2096-2.8887-3.8388-4.1009-8.8953-3.2666-13.627 0.86104-4.8833 3.8951-9.3418 8.1217-11.935" fill="#7f0000" stroke-width="3.2001"/>
<path d="m146.86 303.34c2.3275 1.8324 4.1114 4.3468 5.0723 7.149 0.96079 2.8021 1.095 5.8821 0.38162 8.7571-1.0523 4.2408-3.9892 7.9769-7.8616 10.001-3.2399-3.5474-4.9264-8.4661-4.5449-13.255 0.39379-4.943 2.9911-9.6693 6.9526-12.652" fill="#ff7f00" stroke-width="3.2001"/>
<path d="m145.72 329.35c2.5299 1.541 4.6017 3.824 5.8906 6.4912 1.2889 2.6672 1.7904 5.709 1.4258 8.6488-0.53775 4.3362-3.0069 8.3965-6.6096 10.869-3.6408-3.1346-5.9032-7.8163-6.097-12.617-0.2-4.9546 1.8136-9.9575 5.3901-13.392" fill="#7f0000" stroke-width="3.2001"/>
<path d="m147.46 355.33c2.6683 1.2867 4.953 3.3565 6.4962 5.8852 1.5431 2.5286 2.3392 5.507 2.2634 8.4682-0.11183 4.368-2.1728 8.65-5.5169 11.462-3.9294-2.7642-6.6382-7.2028-7.2997-11.961-0.68275-4.9114 0.83283-10.087 4.057-13.855" fill="#ff7f00" stroke-width="3.2001"/>
<path d="m151.63 381.05c2.7956 0.97965 5.2978 2.7805 7.1145 5.1204 1.8167 2.3399 2.9414 5.2102 3.1978 8.1615 0.37816 4.353-1.1902 8.8389-4.1982 12.008-4.2143-2.3066-7.4032-6.4138-8.5936-11.068-1.2286-4.804-0.30236-10.117 2.4795-14.222" fill="#7f0000" stroke-width="3.2001"/>
<path d="m158.77 406.09c2.8734 0.7204 5.5295 2.2855 7.5522 4.4498 2.0226 2.1642 3.4046 4.92 3.9292 7.8354 0.77385 4.3004-0.37849 8.9107-3.0847 12.341-4.4072-1.9124-7.9577-5.7114-9.5678-10.238-1.6619-4.6718-1.2244-10.047 1.1712-14.389" fill="#ff7f00" stroke-width="3.2001"/>
<path d="m168.28 430.34c2.9382 0.3767 5.7603 1.6177 8.024 3.5285 2.2636 1.9108 3.9608 4.4844 4.8254 7.3178 1.2754 4.1791 0.67441 8.8931-1.6086 12.619-4.6019-1.3795-8.5754-4.7336-10.708-9.0386-2.201-4.4434-2.4001-9.8326-0.53296-14.426" fill="#7f0000" stroke-width="3.2001"/>
<path d="m180.42 453.4c2.9623 9e-3 5.9165 0.89069 8.3997 2.5059 2.4832 1.6152 4.4865 3.9585 5.6958 6.6627 1.7839 3.9887 1.7723 8.7408-0.0309 12.721-4.7374-0.79804-9.0963-3.6332-11.746-7.6406-2.7352-4.136-3.6012-9.459-2.3183-14.249" fill="#ff7f00" stroke-width="3.2001"/>
<path d="m195.42 474.68c2.9469-0.30121 5.9772 0.26574 8.6161 1.6118 2.6387 1.346 4.8766 3.4665 6.3627 6.0289 2.1921 3.7797 2.6787 8.5069 1.3025 12.654-4.795-0.29712-9.427-2.66-12.482-6.3673-3.1536-3.8265-4.5728-9.0294-3.799-13.927" fill="#7f0000" stroke-width="3.2001"/>
<path d="m212.72 494.16c2.877-0.70593 5.9565-0.56372 8.7561 0.40442 2.7996 0.96814 5.3092 2.7586 7.1356 5.0909 2.6938 3.4401 3.8296 8.0545 3.0403 12.352-4.79 0.36896-9.7042-1.3304-13.243-4.5795-3.6526-3.3535-5.7778-8.31-5.6889-13.268" fill="#ff7f00" stroke-width="3.2001"/>
<path d="m232.49 511.17c2.7227-1.1671 5.7841-1.5305 8.7044-1.0333 2.9202 0.49719 5.689 1.853 7.8722 3.8552 3.2203 2.9532 5.0957 7.3197 5.0199 11.688-4.6652 1.1475-9.7913 0.27497-13.814-2.3516-4.152-2.7109-7.0594-7.2531-7.7826-12.159" fill="#7f0000" stroke-width="3.2001"/>
<path d="m254.73 524.82c2.4982-1.5919 5.4606-2.4455 8.4228-2.4272 2.9622 0.0185 5.9138 0.90875 8.392 2.5316 3.6555 2.3937 6.2121 6.3995 6.8438 10.723-4.4182 1.8868-9.618 1.8545-14.012-0.087-4.5357-2.0039-8.1392-6.0162-9.6462-10.74" fill="#ff7f00" stroke-width="3.2001"/>
<path d="m278.87 534.72c2.1803-2.0053 4.947-3.3652 7.8666-3.8666 2.9195-0.50134 5.9814-0.14245 8.7058 1.0205 4.0186 1.7155 7.2382 5.2108 8.6182 9.3564-4.0188 2.6324-9.1436 3.5125-13.81 2.3718-4.8168-1.1774-9.0681-4.4955-11.38-8.8821" fill="#7f0000" stroke-width="3.2001"/>
<path d="m304.41 540.24c1.7488-2.391 4.1983-4.2628 6.9647-5.3223 2.7663-1.0594 5.8395-1.3027 8.738-0.69165 4.2754 0.90143 8.113 3.704 10.273 7.5022-3.4303 3.3636-8.2861 5.2233-13.086 5.0117-4.9538-0.21839-9.7691-2.6466-12.89-6.4999" fill="#ff7f00" stroke-width="3.2001"/>
<path d="m330.53 540.64c1.2025-2.7072 3.1998-5.0555 5.6788-6.677 2.479-1.6215 5.4309-2.5104 8.3931-2.5272 4.3693-0.0249 8.7136 1.9009 11.629 5.1553-2.6398 4.0139-6.9913 6.8602-11.727 7.6702-4.8876 0.83612-10.108-0.51673-13.974-3.6213" fill="#7f0000" stroke-width="3.2001"/>
<path d="m356.13 535.25c0.48587-2.9221 1.8311-5.696 3.8248-7.8869 1.9937-2.1908 4.6288-3.791 7.4922-4.5494 4.2237-1.1188 8.912-0.34278 12.55 2.0774-1.55 4.5472-5.0496 8.393-9.4309 10.364-4.5222 2.0339-9.9151 2.0322-14.436-5e-3" fill="#ff7f00" stroke-width="3.2001"/>
<path d="m379.64 523.73c-0.27871-2.949 0.31119-5.9749 1.6773-8.6033s3.5034-4.85 6.0771-6.3166c3.7962-2.1633 8.5268-2.6139 12.663-1.2062-0.33358 4.7925-2.7315 9.4063-6.462 12.433-3.8504 3.1243-9.0638 4.5038-13.956 3.6928" fill="#7f0000" stroke-width="3.2002"/>
<path d="m399.51 506.61c-1.0992-2.7507-1.3867-5.82-0.81742-8.727 0.56931-2.9069 1.9932-5.6412 4.0487-7.774 3.032-3.1461 7.4434-4.9127 11.809-4.7288 1.0316 4.692 0.0324 9.7947-2.6928 13.751-2.8128 4.0834-7.4254 6.8774-12.347 7.4789" fill="#ff7f00" stroke-width="3.2002"/>
<path d="m413.67 484.52c-1.8824-2.2872-3.0882-5.1244-3.4284-8.067-0.34012-2.9426 0.18646-5.98 1.4974-8.6364 1.9337-3.9182 5.6006-6.9406 9.8157-8.0908 2.4075 4.1574 3.0046 9.3226 1.6091 13.92-1.4403 4.7447-4.987 8.8072-9.4939 10.875" fill="#7f0000" stroke-width="3.2002"/>
<path d="m420.18 459.09c-2.5389-1.5261-4.624-3.7968-5.9286-6.4563-1.3045-2.6594-1.8239-5.6982-1.4767-8.64 0.51224-4.3392 2.9574-8.4139 6.5454-10.907 3.6591 3.113 5.949 7.7813 6.171 12.58 0.22912 4.9532-1.755 9.9678-5.3112 13.423" fill="#ff7f00" stroke-width="3.2001"/>
<path d="m418.16 432.89c-2.8865-0.66571-5.5718-2.18-7.6351-4.3055-2.0633-2.1254-3.4974-4.8544-4.0772-7.7593-0.85538-4.2848 0.20923-8.9161 2.8498-12.397 4.4427 1.8284 8.0645 5.5592 9.7603 10.054 1.7503 4.6393 1.4149 10.022-0.89779 14.408" fill="#7f0000" stroke-width="3.2001"/>
<path d="m407.82 408.93c-2.9607 0.0966-5.9446-0.67847-8.484-2.2038-2.5393-1.5253-4.6252-3.7954-5.9306-6.4545-1.9254-3.9223-2.084-8.6718-0.42432-12.714 4.763 0.62799 9.2205 3.3054 12.012 7.2153 2.8814 4.0355 3.9374 9.324 2.8267 14.157" fill="#ff7f00" stroke-width="3.2001"/>
<path d="m392.24 388.03c-2.924 0.47494-5.9825 0.0883-8.6963-1.0993-2.7138-1.1876-5.0731-3.1719-6.7082-5.642-2.4118-3.6435-3.1772-8.3335-2.0487-12.555 4.8042 0.013 9.5678 2.0977 12.837 5.6178 3.3744 3.6333 5.0988 8.7431 4.6161 13.678" fill="#7f0000" stroke-width="3.2001"/>
<path d="m374.06 369.42c-2.8993 0.60791-5.9724 0.36126-8.7376-0.7013-2.7652-1.0626-5.2127-2.9372-6.9589-5.3302-2.5756-3.5296-3.5543-8.18-2.6196-12.448 4.7999-0.2063 9.6538 1.6588 13.081 5.0262 3.5368 3.4756 5.4927 8.5015 5.2356 13.454" fill="#ff7f00" stroke-width="3.2"/>
<path d="m354.88 351.87c-2.9126 0.54059-5.9791 0.22281-8.7189-0.90347-2.7398-1.1263-5.1432-3.0571-6.8335-5.4898-2.4932-3.5883-3.3638-8.2601-2.3306-12.506 4.8033-0.095 9.6127 1.882 12.96 5.3278 3.4554 3.5566 5.2943 8.6264 4.9226 13.571" fill="#7f0000" stroke-width="3.2001"/>
<path d="m336.02 333.96c-2.9472 0.29956-5.9772-0.26898-8.6153-1.6165-2.638-1.3475-4.8748-3.4692-6.3595-6.0325-2.1901-3.781-2.6741-8.5085-1.2957-12.655 4.7949 0.29978 9.4256 2.6651 12.479 6.3742 3.1516 3.8283 4.5679 9.032 3.7914 13.93" fill="#ff7f00" stroke-width="3.2001"/>
<path d="m318.68 314.53c-2.9577-0.16336-5.8621-1.1971-8.2579-2.9393-2.3958-1.7421-4.2745-4.1864-5.3416-6.9497-1.574-4.076-1.3154-8.821 0.69232-12.702 4.6895 1.0433 8.895 4.1014 11.333 8.2409 2.5164 4.2726 3.1044 9.6333 1.5742 14.35" fill="#7f0000" stroke-width="3.2001"/>
<path d="m304.58 292.61c-2.8686-0.73919-5.5144-2.3215-7.5229-4.499-2.0084-2.1774-3.3723-4.9422-3.8779-7.861-0.74572-4.3053 0.43677-8.908 3.1654-12.321 4.3946 1.9411 7.9201 5.7632 9.5007 10.3 1.6314 4.6826 1.1587 10.055-1.2652 14.381" fill="#ff7f00" stroke-width="3.2001"/>
<path d="m295.51 268.19c-2.6057-1.4089-4.792-3.5824-6.2164-6.1798-1.4243-2.5974-2.0815-5.6094-1.8686-8.5639 0.31415-4.3581 2.5712-8.5399 6.042-11.194 3.7971 2.9432 6.2972 7.5025 6.7375 12.286 0.45443 4.9377-1.2993 10.038-4.6945 13.651" fill="#7f0000" stroke-width="3.2001"/>
<path d="m292.46 242.23c-2.0484-2.1398-3.4632-4.8788-4.0227-7.7878-0.55951-2.9089-0.26175-5.9773 0.84668-8.7243 1.6349-4.0519 5.0652-7.3405 9.1825-8.803 2.712 3.9654 3.6941 9.0715 2.6467 13.76-1.0811 4.8392-4.3137 9.1558-8.6532 11.555" fill="#ff7f00" stroke-width="3.2002"/>
<path d="m297.72 216.69c-1.3076-2.6579-1.8304-5.696-1.4866-8.6381 0.3439-2.9421 1.5532-5.7778 3.4384-8.0625 2.7808-3.37 7.0431-5.4708 11.41-5.6234 1.3896 4.5986 0.78608 9.763-1.6266 13.917-2.4902 4.2877-6.8741 7.4283-11.735 8.4068" fill="#7f0000" stroke-width="3.2002"/>
<path d="m310.39 193.89c-0.52573-2.9152-0.19239-5.9799 0.94781-8.7138 1.1402-2.7339 3.0831-5.1274 5.5243-6.8052 3.6008-2.4748 8.2767-3.3216 12.517-2.2668 0.0706 4.8035-1.9308 9.6025-5.3934 12.933-3.574 3.437-8.6529 5.25-13.595 4.8532" fill="#ff7f00" stroke-width="3.2002"/>
<path d="m328.72 175.41c0.12186-2.9597 1.1147-5.8782 2.823-8.2982 1.7083-2.42 4.1259-4.3328 6.8739-5.4386 4.0535-1.6311 8.8016-1.4392 12.71 0.51388-0.97736 4.7036-3.976 8.9515-8.0808 11.447-4.2368 2.5761-9.5887 3.2394-14.326 1.7756" fill="#7f0000" stroke-width="3.2002"/>
<path d="m350.65 161.28c0.84198-2.84 2.5185-5.4271 4.7668-7.3559 2.2483-1.9287 5.0603-3.1922 7.9953-3.5923 4.3292-0.59024 8.8863 0.75711 12.198 3.6067-2.098 4.3218-6.0445 7.7073-10.635 9.1235-4.7382 1.4617-10.09 0.79596-14.325-1.782" fill="#ff7f00" stroke-width="3.2002"/>
<path d="m375.31 152.87c1.4345-2.5917 3.6293-4.7565 6.2405-6.1551 2.6112-1.3986 5.6295-2.0261 8.5817-1.7841 4.3547 0.35701 8.514 2.6551 11.134 6.1518-2.9804 3.7678-7.5639 6.2229-12.352 6.616-4.9418 0.40576-10.024-1.398-13.604-4.8286" fill="#7f0000" stroke-width="3.2002"/>
<path d="m401.29 149.76c2.1306-2.058 4.8633-3.485 7.7698-4.0576 2.9063-0.57251 5.9761-0.28853 8.7281 0.80759 4.0592 1.6168 7.3631 5.0324 8.844 9.1431-3.9533 2.7297-9.055 3.7347-13.748 2.7083-4.844-1.0594-9.1751-4.2726-11.594-8.6014" fill="#ff7f00" stroke-width="3.2001"/>
<path d="m427.02 154.47c2.6551-1.3136 5.6921-1.8432 8.6351-1.5059 2.9429 0.33731 5.7814 1.5403 8.0704 3.4205 3.3764 2.7733 5.4868 7.0311 5.6491 11.397-4.5956 1.4-9.7615 0.80795-13.921-1.5955-4.2934-2.4806-7.4439-6.8576-8.4334-11.716" fill="#7f0000" stroke-width="3.2001"/>
<path d="m450.21 166.71c2.9398-0.3638 5.9814 0.13839 8.6482 1.428 2.6668 1.2896 4.9491 3.3618 6.4894 5.8921 2.272 3.7322 2.859 8.4477 1.5714 12.623-4.8001-0.19501-9.4812-2.4586-12.615-6.1001-3.2342-3.7585-4.7637-8.9298-4.0943-13.843" fill="#ff7f00" stroke-width="3.2002"/>
<path d="m467.87 186.07c2.8743 0.71643 5.5325 2.2776 7.5581 4.439 2.0256 2.1614 3.4114 4.9152 3.9401 7.8298 0.77978 4.2992-0.36609 8.9109-3.0675 12.345-4.4097-1.9061-7.9654-5.7-9.5818-10.224-1.6684-4.6694-1.2384-10.045 1.1511-14.39" fill="#7f0000" stroke-width="3.2002"/>
<path d="m477.19 210.58c2.3757 1.7694 4.2263 4.235 5.2618 7.0104 1.0355 2.7754 1.2521 5.8506 0.61593 8.7437-0.93838 4.2674-3.7741 8.0806-7.5908 10.207-3.3336-3.4593-5.1512-8.3309-4.8981-13.128 0.2613-4.9517 2.7311-9.7458 6.6112-12.833" fill="#ff7f00" stroke-width="3.2001"/>
<path d="m476.51 236.81c1.5295 2.5367 2.3096 5.5193 2.2179 8.4801-0.0917 2.9608-1.0548 5.8893-2.7383 8.3265-2.4833 3.595-6.5511 6.0517-10.889 6.5762-1.7768-4.4635-1.6159-9.6606 0.43378-14.006 2.1155-4.4846 6.2156-7.9876 10.975-9.3772" fill="#7f0000" stroke-width="3.2002"/>
<path d="m465.06 262.17c-0.18612-2.9563 0.49839-5.9622 1.9462-8.5464 1.4478-2.5842 3.6537-4.7377 6.2721-6.1228 3.8622-2.0431 8.6045-2.3452 12.695-0.80847-0.48374 4.7796-3.0251 9.3159-6.8486 12.224-3.9464 3.002-9.2004 4.2174-14.064 3.2533" fill="#ff7f00" stroke-width="3.2002"/>
<path d="m485.5 245.44c-1.3631-2.6299-1.9495-5.6564-1.6674-8.6052 0.2821-2.9487 1.4317-5.8091 3.2686-8.1329 2.7095-3.4277 6.9269-5.6174 11.289-5.8616 1.4858 4.5686 0.99066 9.7445-1.3344 13.948-2.3998 4.339-6.7168 7.5709-11.556 8.6512" fill="#7f0000" stroke-width="3.2002"/>
<path d="m497.79 221.78c-2.4372-1.6835-4.3745-4.0814-5.5082-6.818-1.1337-2.7365-1.4599-5.802-0.92737-8.7158 0.78552-4.298 3.4834-8.2098 7.2216-10.471 3.4548 3.338 5.4449 8.1416 5.363 12.945-0.0845 4.9576-2.3816 9.8366-6.1491 13.06" fill="#ff7f00" stroke-width="3.2003"/>
<path d="m497.41 195.41c-2.8902-0.64947-5.5839-2.1486-7.6592-4.2624-2.0752-2.1138-3.5246-4.8346-4.1208-7.7362-0.87942-4.2799 0.15909-8.9171 2.78-12.413 4.4528 1.8033 8.0957 5.5136 9.8167 9.9989 1.7764 4.6294 1.4713 10.014-0.81665 14.413" fill="#7f0000" stroke-width="3.2001"/>
<path d="m487 171.34c-2.9469 0.30166-5.9773-0.26471-8.6164-1.6104-2.639-1.3456-4.8772-3.4657-6.3637-6.0279-2.1928-3.7794-2.6801-8.5064-1.3046-12.654 4.795 0.29632 9.4274 2.6584 12.483 6.3653 3.1542 3.826 4.5742 9.0287 3.8013 13.927" fill="#ff7f00" stroke-width="3.2001"/>
<path d="m469.61 151.71c-2.7328 1.1432-5.7973 1.4799-8.7132 0.95731-2.9158-0.52262-5.6726-1.9026-7.8383-3.9237-3.1945-2.9812-5.0316-7.3639-4.9178-11.732 4.675-1.1068 9.7933-0.18951 13.793 2.472 4.1281 2.747 6.9958 7.3144 7.6763 12.226" fill="#7f0000" stroke-width="3.2001"/>
<path d="m447.55 137.72c-2.4927 1.6006-5.4521 2.4645-8.4144 2.4564-2.9623-8e-3 -5.9169-0.88814-8.4008-2.5023-3.6638-2.3809-6.2344-6.3778-6.8812-10.699 4.4117-1.9022 9.6115-1.888 14.013 0.0382 4.5427 1.9881 8.1602 5.9879 9.6836 10.707" fill="#ff7f00" stroke-width="3.2001"/>
<path d="m423.4 127.95c-2.2635 1.9108-5.0855 3.152-8.0237 3.5288-2.9381 0.3768-5.9821-0.11184-8.6545-1.3896-3.942-1.8847-7.01-5.5136-8.2127-9.7142 4.127-2.4591 9.2845-3.1207 13.899-1.7826 4.7623 1.381 8.8688 4.8768 10.992 9.3576" fill="#7f0000" stroke-width="3.2001"/>
<path d="m398.16 121.54c-2.043 2.1451-4.7138 3.6849-7.5939 4.3781-2.88 0.69329-5.959 0.53749-8.7543-0.4429-4.1232-1.4461-7.5667-4.721-9.2178-8.7664 3.8361-2.8923 8.8915-4.1092 13.624-3.2794 4.8841 0.85649 9.3455 3.8864 11.942 8.1106" fill="#ff7f00" stroke-width="3.2001"/>
<path d="m372.39 117.92c-1.8653 2.3014-4.4048 4.0494-7.2203 4.9703-2.8155 0.92096-5.8971 1.0114-8.7618 0.25725-4.2255-1.1124-7.9195-4.102-9.8882-8.0028 3.593-3.1893 8.5352-4.8058 13.318-4.3564 4.9369 0.46393 9.626 3.1281 12.552 7.1316" fill="#7f0000" stroke-width="3.2"/>
</g>
<path d="m315.86 58.314s-14.916 5.4031-17.906 12.076c-1.12 2.5002-1.3773 6.1539 1.1352 8.1467 2.5124 1.9929 5.3052 0.9185 7.5351-0.65229 5.9518-4.1926 9.2354-19.571 9.2354-19.571v0m-45.235 9.226s-13.659 8.0472-15.321 15.168c-0.62278 2.6679-0.43159 6.3608 2.3879 7.8887 2.8195 1.5279 5.3828-0.10391 7.304-2.0401 5.1279-5.1679 5.6295-21.017 5.6295-21.017v0m-42.805 17.33s-12.015 10.376-12.457 17.675c-0.16571 2.7346 0.87121 6.2542 3.9242 7.2356 3.053 0.98131 5.3165-1.0425 6.846-3.3008 4.0824-6.028 1.6867-21.61 1.6867-21.61v0m-39.061 24.609s-9.9927 12.314-9.0763 19.569c0.34334 2.718 1.8062 6.1142 4.981 6.5668 3.1748 0.45262 5.005-1.9758 6.1334-4.459 3.0119-6.6281-2.0381-21.676-2.0381-21.676v0m-34.054 31.191s-7.6042 13.871-5.3093 20.814c0.85983 2.6012 2.9487 5.6525 6.1513 5.4859 3.2025-0.1666 4.5664-2.8309 5.2008-5.4837 1.6934-7.0806-6.0428-20.816-6.0428-20.816v0m-27.696 36.953s-4.748 15.111-1.2015 21.505c1.3287 2.3958 3.9488 5.0052 7.0644 4.2458 3.1156-0.75946 3.8634-3.6316 3.9998-6.3558 0.36389-7.2712-9.8626-19.395-9.8626-19.395v0m-20.377 41.425s-2.2538 15.709 2.2247 21.489c1.6779 2.1656 4.6646 4.3459 7.6283 3.1211 2.9638-1.2248 3.4141-4.5145 3.0808-7.2216-0.88978-7.2257-12.934-17.389-12.934-17.389v0m-13.489 44.16s0.27079 15.853 5.6283 20.83c2.0072 1.8645 5.3083 3.531 8.0339 1.8413 2.7256-1.6898 2.5666-4.7024 1.8425-7.3321-1.9329-7.019-15.505-15.339-15.505-15.339v0m-6.366 45.732s2.6721 15.614 8.7402 19.694c2.2734 1.5287 5.794 2.66 8.2227 0.56589 2.4287-2.0941 1.8474-5.0654 0.71927-7.5487-3.0111-6.6284-17.682-12.711-17.682-12.711v0m0.63528 46.169s5.0426 15.059 11.611 18.272c2.4609 1.2038 6.103 1.8435 8.2229-0.56271 2.1199-2.4062 1.0444-5.5823-0.45204-7.8627-3.9944-6.0867-19.382-9.8468-19.382-9.8468v0m7.5316 45.542s7.2285 14.134 14.216 16.289c2.6179 0.80744 6.3151 0.87445 8.0361-1.8315 1.721-2.706 0.19039-5.6767-1.641-7.6981-4.8882-5.3952-20.611-6.7592-20.611-6.7592v0m14.343 43.889s9.2985 12.839 16.542 13.843c2.7137 0.37604 6.3736-0.15235 7.637-3.0999 1.2634-2.9475-0.58566-5.3072-2.6854-7.0482-5.6045-4.6467-21.493-3.6949-21.493-3.6949v0m21.059 41.092s11.228 11.156 18.536 10.915c2.7381-0.0901 6.2552-1.2322 6.9999-4.3514 0.74469-3.1192-1.4138-5.1253-3.7756-6.4897-6.3039-3.6418-21.761-0.074-21.761-0.074v0m27.548 37.059s13.011 9.0674 20.186 7.661c2.6884-0.52692 5.9775-2.2168 6.2138-5.415 0.2362-3.1981-2.4728-5.0267-5.0386-5.952-6.8485-2.4697-21.362 3.7059-21.362 3.7059v0m33.599 31.658s14.432 6.4999 21.182 3.6887c2.529-1.0532 5.4144-3.3659 5.0071-6.5468-0.40728-3.1809-3.0501-4.1825-5.7386-4.6422-7.1761-1.2269-20.451 7.5003-20.451 7.5003v0m39.044 24.661s15.483 3.4017 21.559-0.66626c2.2765-1.5241 4.3305-4.536 3.2351-7.5499-1.0954-3.0139-3.7542-3.4856-6.4788-3.3591-7.2723 0.3379-18.315 11.575-18.315 11.575v0m43.335 15.898s15.813-0.15827 20.712-5.5868c1.8353-2.0339 3.454-5.3585 1.7252-8.0594-1.7288-2.7009-4.8525-2.5721-7.4662-1.7927-6.9766 2.0803-14.971 15.439-14.971 15.439v0m45.853 5.4048s15.278-3.9565 18.632-10.454c1.2566-2.4343 1.9748-6.0617-0.3851-8.233-2.3599-2.1713-4.9238-1.3229-7.2849 0.0427-6.3022 3.6447-10.962 18.645-10.962 18.645v0m45.748-6.2079s13.724-7.7514 15.232-14.906c0.56482-2.6807 0.2937-6.3685-2.5581-7.835-2.8519-1.4664-5.043-0.0146-6.9637 1.922-5.1267 5.169-5.7098 20.819-5.7098 20.819v0m42.448-18.133s10.95-11.296 10.275-18.577c-0.25278-2.7278-1.6018-6.1708-4.7596-6.7287-3.1579-0.55798-4.7242 1.3726-6.005 3.7806-3.4186 6.4275 0.48932 21.525 0.48932 21.525v0m35.261-29.764s7.0196-14.142 4.3074-20.932c-1.0161-2.5442-3.2864-5.463-6.4728-5.1022-3.1865 0.36065-4.0964 2.8204-4.626 5.496-1.4134 7.1417 6.7914 20.539 6.7914 20.539v0m24.677-38.997s2.3186-15.603-2.3807-21.205c-1.7606-2.0989-4.8297-4.1615-7.7436-2.8226-2.9139 1.3389-3.019 3.9232-2.6901 6.6309 0.8779 7.227 12.814 17.397 12.814 17.397v0m11.218-44.755s-2.9413-15.464-9.2743-19.119c-2.3727-1.3693-5.9623-2.2568-8.2418-1e-3 -2.2795 2.2554-1.5198 4.5722-0.30337 7.0134 3.2468 6.5159 17.82 12.107 17.82 12.107v0m-4.4729-45.929s-7.7586-13.719-14.908-15.254c-2.6786-0.57507-6.3674-0.31799-7.8448 2.5283-1.4773 2.8462 0.0576 5.1566 2.0012 7.0702 5.1877 5.1077 20.751 5.6557 20.751 5.6557v0m-18.237-42.39s-11.337-11.05-18.642-10.717c-2.7367 0.12458-6.1031 1.5526-6.7484 4.6939-0.64533 3.1412 1.3329 4.8044 3.711 6.1402 6.3476 3.5652 21.679-0.11679 21.679-0.11679v0m-28.63-36.207s-13.485-8.307-20.547-6.4112c-2.6458 0.71027-6.1307 2.2383-6.2572 5.4425-0.12649 3.2042 3.0402 5.2603 5.6584 6.0245 6.9885 2.0397 21.146-5.0558 21.146-5.0558v0m7.0434-11.182s15.246-3.9909 18.514-10.532c1.2245-2.4506 1.8949-6.087-0.49326-8.227-2.3882-2.14-5.1612-1.1874-7.4868 0.23757-6.2072 3.8036-10.534 18.521-10.534 18.521v0m45.43-7.9461s12.735-9.1919 13.302-16.482c0.21213-2.7312-0.53531-6.3526-3.5533-7.4364-3.018-1.0839-4.6242 0.49811-6.3236 2.6314-4.5359 5.6941-3.4248 21.287-3.4248 21.287v0m39.429-23.871s8.3714-13.363 6.2799-20.369c-0.78363-2.6249-3.1274-5.4085-6.3293-5.2302-3.2019 0.17834-4.173 2.2008-4.9032 4.8286-1.9491 7.014 4.9526 20.77 4.9526 20.77v0m27.187-37.205s2.3385-15.529-2.5135-20.999c-1.8178-2.0493-4.9426-4.0264-7.8183-2.6076-2.8757 1.4188-2.7821 3.5365-2.4493 6.2435 0.88818 7.2254 12.781 17.363 12.781 17.363v0m10.192-44.949s-3.7336-15.339-10.183-18.785c-2.4163-1.2909-6.033-2.0604-8.2374 0.26846-2.2045 2.3289-1.306 5.1641 0.06 7.5248 3.6459 6.3012 18.36 10.992 18.36 10.992v0m-6.7674-45.642s-8.6779-13.092-15.939-13.952c-2.7205-0.32212-6.369 0.27868-7.5737 3.2505-1.2046 2.9718 0.30609 4.6739 2.3718 6.4549 5.5137 4.7537 21.141 4.2464 21.141 4.2464v0m-22.162-40.428s-12.945-9.0498-20.069-7.4018c-2.669 0.61745-5.6646 2.6971-5.7117 5.9036-0.0472 3.2065 2.2651 4.6164 4.8575 5.4646 6.9192 2.264 20.923-3.9664 20.923-3.9664v0m-34.681-30.459s-14.914-5.286-21.39-1.8908c-2.4263 1.272-5.0966 3.8301-4.4106 6.9627 0.68606 3.1326 3.4496 3.9414 6.1689 4.1537 7.2582 0.56667 19.632-9.2256 19.632-9.2256v0m-41.089-21.08s-15.737-2.0145-21.448 2.5522c-2.1397 1.7109-4.0463 4.8379-2.7252 7.7601 1.321 2.9221 4.3112 3.2495 7.0125 2.8718 7.2102-1.008 17.161-13.184 17.161-13.184v0m-44.436-12.537s-15.878 0.74815-20.783 6.1709c-1.8379 2.0317-3.4605 5.3544-1.7349 8.0574 1.7256 2.703 4.9972 2.501 7.6062 1.7058 6.9638-2.1225 14.912-15.934 14.912-15.934v0m-45.859-5.2826s-15.63 2.8913-19.751 8.9317c-1.544 2.2631-2.699 5.7759-0.62125 8.2187 2.0777 2.4428 5.3735 1.8376 7.8448 0.68344 6.5964-3.0805 12.528-17.834 12.528-17.834v0" fill="#7f007f" stroke="#000" stroke-linecap="round" stroke-width="2"/>
<path d="m319.84 147.52c-55.008 4.1937-106.88 41.593-127.52 94.416-28.534 67.092-16.568 150.78 30.639 205.82 22.662 26.998 56.632 46.324 92.19 44.586 31.214-0.53272 64.512-26.477 62.236-60.815-0.64841-13.352-6.9005-25.717-15.224-35.802-16.495-21.201-38.218-37.2-55.911-57.296-20.577-22.187-38.247-49.412-41.937-80.541-4.3524-32.553 6.7577-67.204 30.15-89.731 7.7834-8.0599 16.7-15.005 26.303-20.716l-0.58145 0.0465-0.34817 0.0279v7e-4z" fill="#ffd4aa" stroke="#000" stroke-width=".83797px"/>
<g fill="#ff7f00" stroke="#000" stroke-width=".76291">
<path d="m347.31 84.749c0 2.1777-1.8871 3.943-4.2149 3.943s-4.2149-1.7654-4.2149-3.943c0-2.1777 1.887-3.943 4.2149-3.943s4.2149 1.7654 4.2149 3.943z"/>
<path d="m338.89 84.95c0 2.1777-1.887 3.943-4.2149 3.943s-4.2149-1.7654-4.2149-3.943c0-2.1777 1.887-3.943 4.2149-3.943s4.2149 1.7654 4.2149 3.943z"/>
<path d="m330.47 85.456c0 2.1777-1.887 3.943-4.2149 3.943s-4.215-1.7654-4.215-3.943c0-2.1777 1.8871-3.943 4.215-3.943s4.2149 1.7654 4.2149 3.943z"/>
<path d="m322.08 86.263c0 2.1777-1.8871 3.943-4.215 3.943-2.3278 0-4.2149-1.7654-4.2149-3.943 0-2.1777 1.8871-3.943 4.2149-3.943 2.3279 0 4.215 1.7654 4.215 3.943z"/>
<path d="m313.73 87.388c0 2.1777-1.8871 3.943-4.2149 3.943-2.3279 0-4.2149-1.7654-4.2149-3.943 0-2.1777 1.887-3.943 4.2149-3.943 2.3278 0 4.2149 1.7653 4.2149 3.943z"/>
<path d="m305.43 88.838c0 2.1777-1.8871 3.943-4.215 3.943-2.3278 0-4.2149-1.7654-4.2149-3.943 0-2.1777 1.8871-3.943 4.2149-3.943 2.3279 0 4.215 1.7654 4.215 3.943z"/>
<path d="m297.18 90.577c0 2.1777-1.8871 3.943-4.215 3.943-2.3278 0-4.215-1.7654-4.215-3.943 0-2.1777 1.8871-3.943 4.215-3.943 2.3279 0 4.215 1.7654 4.215 3.943z"/>
<path d="m289 92.603c0 2.1777-1.8871 3.943-4.215 3.943-2.3278 0-4.2149-1.7654-4.2149-3.943 0-2.1777 1.8871-3.943 4.2149-3.943 2.3279 0 4.215 1.7654 4.215 3.943z"/>
<path d="m280.9 94.948c0 2.1777-1.8871 3.943-4.215 3.943-2.3278 0-4.2149-1.7654-4.2149-3.943s1.8871-3.943 4.2149-3.943c2.3279 0 4.215 1.7654 4.215 3.943z"/>
<path d="m272.89 97.583c0 2.1777-1.8871 3.943-4.215 3.943-2.3278 0-4.2149-1.7654-4.2149-3.943s1.8871-3.943 4.2149-3.943c2.3279 0 4.215 1.7654 4.215 3.943z"/>
<path d="m264.98 100.49c0 2.1777-1.8871 3.943-4.215 3.943-2.3278 0-4.2149-1.7654-4.2149-3.943 0-2.1777 1.8871-3.943 4.2149-3.943 2.3279 0 4.215 1.7654 4.215 3.943z"/>
<path d="m257.18 103.68c0 2.1777-1.8871 3.943-4.215 3.943-2.3278 0-4.2149-1.7654-4.2149-3.943s1.8871-3.943 4.2149-3.943c2.3279 0 4.215 1.7654 4.215 3.943z"/>
<path d="m249.51 107.18c0 2.1777-1.8871 3.943-4.215 3.943-2.3278 0-4.2149-1.7654-4.2149-3.943s1.8871-3.943 4.2149-3.943c2.3279 0 4.215 1.7654 4.215 3.943z"/>
<path d="m241.97 110.94c0 2.1777-1.8871 3.943-4.215 3.943-2.3278 0-4.2149-1.7654-4.2149-3.943 0-2.1777 1.8871-3.943 4.2149-3.943 2.3279 0 4.215 1.7654 4.215 3.943z"/>
<path d="m234.56 114.96c0 2.1777-1.8871 3.943-4.215 3.943-2.3278 0-4.2149-1.7654-4.2149-3.943 0-2.1777 1.8871-3.943 4.2149-3.943 2.3279 0 4.215 1.7654 4.215 3.943z"/>
<path d="m227.32 119.27c0 2.1777-1.8871 3.943-4.215 3.943-2.3278 0-4.2149-1.7654-4.2149-3.943s1.8871-3.943 4.2149-3.943c2.3279 0 4.215 1.7654 4.215 3.943z"/>
<path d="m220.24 123.85c0 2.1777-1.8871 3.943-4.215 3.943-2.3278 0-4.2149-1.7654-4.2149-3.943s1.8871-3.943 4.2149-3.943c2.3279 0 4.215 1.7654 4.215 3.943z"/>
<path d="m213.34 128.69c0 2.1777-1.8871 3.943-4.215 3.943-2.3278 0-4.2149-1.7654-4.2149-3.943 0-2.1777 1.8871-3.943 4.2149-3.943 2.3279 0 4.215 1.7654 4.215 3.943z"/>
<path d="m206.62 133.77c0 2.1777-1.8871 3.943-4.215 3.943-2.3278 0-4.2149-1.7654-4.2149-3.943 0-2.1777 1.8871-3.943 4.2149-3.943 2.3279 0 4.215 1.7654 4.215 3.943z"/>
<path d="m200.12 139.14c0 2.1777-1.8871 3.943-4.215 3.943-2.3278 0-4.2149-1.7654-4.2149-3.943 0-2.1777 1.8871-3.943 4.2149-3.943 2.3279 0 4.215 1.7654 4.215 3.943z"/>
<path d="m193.83 144.75c0 2.1777-1.8871 3.943-4.215 3.943-2.3278 0-4.2149-1.7654-4.2149-3.943 0-2.1777 1.8871-3.943 4.2149-3.943 2.3279 0 4.215 1.7654 4.215 3.943z"/>
<path d="m187.76 150.6c0 2.1777-1.8871 3.943-4.215 3.943-2.3278 0-4.2149-1.7654-4.2149-3.943s1.8871-3.943 4.2149-3.943c2.3279 0 4.215 1.7654 4.215 3.943z"/>
<path d="m181.93 156.69c0 2.1777-1.8871 3.943-4.215 3.943-2.3278 0-4.2149-1.7654-4.2149-3.943 0-2.1777 1.8871-3.943 4.2149-3.943 2.3279 0 4.215 1.7654 4.215 3.943z"/>
<path d="m176.37 163.02c0 2.1777-1.8871 3.943-4.215 3.943-2.3278 0-4.2149-1.7654-4.2149-3.943s1.8871-3.9431 4.2149-3.9431c2.3279 0 4.215 1.7654 4.215 3.9431z"/>
<path d="m171.07 169.58c0 2.1777-1.8871 3.943-4.215 3.943-2.3278 0-4.2149-1.7654-4.2149-3.943 0-2.1777 1.8871-3.943 4.2149-3.943 2.3279 0 4.215 1.7654 4.215 3.943z"/>
<path d="m166.04 176.34c0 2.1777-1.8871 3.943-4.215 3.943-2.3278 0-4.2149-1.7654-4.2149-3.943 0-2.1777 1.8871-3.943 4.2149-3.943 2.3279 0 4.215 1.7654 4.215 3.943z"/>
<path d="m161.18 183.23c0 2.1777-1.8871 3.943-4.215 3.943-2.3278 0-4.2149-1.7654-4.2149-3.943 0-2.1777 1.8871-3.943 4.2149-3.943 2.3279 0 4.215 1.7654 4.215 3.943z"/>
<path d="m156.58 190.29c0 2.1777-1.8871 3.943-4.215 3.943-2.3278 0-4.2149-1.7654-4.2149-3.943s1.8871-3.943 4.2149-3.943c2.3279 0 4.215 1.7654 4.215 3.943z"/>
<path d="m152.22 197.5c0 2.1777-1.8871 3.943-4.215 3.943-2.3278 0-4.2149-1.7654-4.2149-3.943s1.8871-3.943 4.2149-3.943c2.3279 0 4.215 1.7654 4.215 3.943z"/>
<path d="m148.11 204.86c0 2.1777-1.8871 3.943-4.215 3.943-2.3278 0-4.2149-1.7654-4.2149-3.943 0-2.1777 1.8871-3.943 4.2149-3.943 2.3279 0 4.215 1.7654 4.215 3.943z"/>
<path d="m144.28 212.37c0 2.1777-1.8871 3.943-4.215 3.943-2.3278 0-4.2149-1.7654-4.2149-3.943 0-2.1777 1.8871-3.943 4.2149-3.943 2.3279 0 4.215 1.7654 4.215 3.943z"/>
<path d="m140.71 220c0 2.1777-1.8871 3.943-4.215 3.943-2.3278 0-4.2149-1.7654-4.2149-3.943s1.8871-3.943 4.2149-3.943c2.3279 0 4.215 1.7654 4.215 3.943z"/>
<path d="m137.39 227.75c0 2.1777-1.8871 3.943-4.215 3.943-2.3278 0-4.2149-1.7654-4.2149-3.943 0-2.1777 1.8871-3.943 4.2149-3.943 2.3279 0 4.215 1.7654 4.215 3.943z"/>
<path d="m134.33 235.61c0 2.1777-1.8871 3.943-4.215 3.943-2.3278 0-4.2149-1.7654-4.2149-3.943s1.8871-3.943 4.2149-3.943c2.3279 0 4.215 1.7654 4.215 3.943z"/>
<path d="m131.54 243.56c0 2.1777-1.8871 3.943-4.215 3.943-2.3278 0-4.2149-1.7654-4.2149-3.943 0-2.1777 1.8871-3.943 4.2149-3.943 2.3279 0 4.215 1.7654 4.215 3.943z"/>
<path d="m129.02 251.61c0 2.1777-1.8871 3.943-4.215 3.943-2.3278 0-4.2149-1.7654-4.2149-3.943 0-2.1777 1.8871-3.943 4.2149-3.943 2.3279 0 4.215 1.7654 4.215 3.943z"/>
<path d="m126.76 259.73c0 2.1777-1.8871 3.943-4.215 3.943-2.3278 0-4.2149-1.7654-4.2149-3.943 0-2.1777 1.8871-3.943 4.2149-3.943 2.3279 0 4.215 1.7654 4.215 3.943z"/>
<path d="m124.75 267.91c0 2.1777-1.8871 3.9431-4.215 3.9431-2.3278 0-4.2149-1.7654-4.2149-3.9431 0-2.1776 1.8871-3.943 4.2149-3.943 2.3279 0 4.215 1.7654 4.215 3.943z"/>
<path d="m123.01 276.16c0 2.1777-1.8871 3.943-4.215 3.943-2.3278 0-4.2149-1.7654-4.2149-3.943 0-2.1777 1.8871-3.943 4.2149-3.943 2.3279 0 4.215 1.7654 4.215 3.943z"/>
<path d="m121.55 284.46c0 2.1777-1.8871 3.943-4.215 3.943-2.3278 0-4.2149-1.7654-4.2149-3.943 0-2.1777 1.8871-3.943 4.2149-3.943 2.3279 0 4.215 1.7653 4.215 3.943z"/>
<path d="m120.34 292.8c0 2.1777-1.8871 3.943-4.215 3.943-2.3278 0-4.2149-1.7654-4.2149-3.943 0-2.1777 1.8871-3.9431 4.2149-3.9431 2.3279 0 4.215 1.7654 4.215 3.9431z"/>
<path d="m119.38 301.18c0 2.1777-1.8871 3.943-4.215 3.943-2.3278 0-4.2149-1.7654-4.2149-3.943 0-2.1777 1.8871-3.943 4.2149-3.943 2.3279 0 4.215 1.7654 4.215 3.943z"/>
<path d="m118.68 309.58c0 2.1777-1.8871 3.943-4.215 3.943-2.3278 0-4.2149-1.7654-4.2149-3.943 0-2.1777 1.8871-3.943 4.2149-3.943 2.3279 0 4.215 1.7654 4.215 3.943z"/>
<path d="m118.27 318c0 2.1777-1.8871 3.9431-4.215 3.9431-2.3278 0-4.2149-1.7654-4.2149-3.9431 0-2.1776 1.8871-3.943 4.2149-3.943 2.3279 0 4.215 1.7654 4.215 3.943z"/>
<path d="m118.12 326.42c0 2.1777-1.8871 3.9431-4.215 3.9431-2.3278 0-4.2149-1.7654-4.2149-3.9431s1.8871-3.943 4.2149-3.943c2.3279 0 4.215 1.7654 4.215 3.943z"/>
<path d="m118.22 334.85c0 2.1777-1.8871 3.9431-4.215 3.9431-2.3278 0-4.2149-1.7654-4.2149-3.9431 0-2.1776 1.8871-3.943 4.2149-3.943 2.3279 0 4.215 1.7654 4.215 3.943z"/>
<path d="m118.57 343.27c0 2.1777-1.8871 3.943-4.215 3.943-2.3278 0-4.2149-1.7654-4.2149-3.943 0-2.1777 1.8871-3.9431 4.2149-3.9431 2.3279 0 4.215 1.7654 4.215 3.9431z"/>
<path d="m119.21 351.68c0 2.1777-1.8871 3.9431-4.215 3.9431-2.3278 0-4.2149-1.7654-4.2149-3.9431s1.8871-3.943 4.2149-3.943c2.3279 0 4.215 1.7654 4.215 3.943z"/>
<path d="m120.11 360.06c0 2.1777-1.8871 3.9431-4.215 3.9431-2.3278 0-4.2149-1.7654-4.2149-3.9431 0-2.1776 1.8871-3.943 4.2149-3.943 2.3279 0 4.215 1.7654 4.215 3.943z"/>
<path d="m121.27 368.41c0 2.1776-1.8871 3.943-4.215 3.943-2.3278 0-4.2149-1.7654-4.2149-3.943 0-2.1777 1.8871-3.9431 4.2149-3.9431 2.3279 0 4.215 1.7654 4.215 3.9431z"/>
<path d="m122.68 376.72c0 2.1777-1.8871 3.943-4.215 3.943-2.3278 0-4.2149-1.7654-4.2149-3.943 0-2.1776 1.8871-3.943 4.2149-3.943 2.3279 0 4.215 1.7654 4.215 3.943z"/>
<path d="m124.36 384.98c0 2.1777-1.8871 3.943-4.215 3.943-2.3278 0-4.2149-1.7654-4.2149-3.943s1.8871-3.943 4.2149-3.943c2.3279 0 4.215 1.7654 4.215 3.943z"/>
<path d="m126.22 393.2c0 2.1777-1.8871 3.943-4.215 3.943-2.3278 0-4.2149-1.7654-4.2149-3.943 0-2.1777 1.8871-3.943 4.2149-3.943 2.3279 0 4.215 1.7654 4.215 3.943z"/>
<path d="m128.31 401.37c0 2.1777-1.8871 3.943-4.215 3.943-2.3278 0-4.2149-1.7654-4.2149-3.943 0-2.1777 1.8871-3.943 4.2149-3.943 2.3279 0 4.215 1.7653 4.215 3.943z"/>
<path d="m130.68 409.46c0 2.1777-1.8871 3.943-4.215 3.943-2.3278 0-4.2149-1.7653-4.2149-3.943s1.8871-3.943 4.2149-3.943c2.3279 0 4.215 1.7654 4.215 3.943z"/>
<path d="m133.28 417.48c0 2.1777-1.8871 3.943-4.215 3.943-2.3278 0-4.2149-1.7653-4.2149-3.943 0-2.1777 1.8871-3.943 4.2149-3.943 2.3279 0 4.215 1.7653 4.215 3.943z"/>
<path d="m136.12 425.41c0 2.1777-1.8871 3.943-4.215 3.943-2.3278 0-4.2149-1.7653-4.2149-3.943 0-2.1777 1.8871-3.943 4.2149-3.943 2.3279 0 4.215 1.7653 4.215 3.943z"/>
<path d="m139.22 433.25c0 2.1777-1.8871 3.943-4.215 3.943-2.3278 0-4.2149-1.7654-4.2149-3.943s1.8871-3.943 4.2149-3.943c2.3279 0 4.215 1.7653 4.215 3.943z"/>
<path d="m142.54 441c0 2.1777-1.8871 3.943-4.215 3.943-2.3278 0-4.2149-1.7653-4.2149-3.943 0-2.1777 1.8871-3.943 4.2149-3.943 2.3279 0 4.215 1.7653 4.215 3.943z"/>
<path d="m146.12 448.63c0 2.1777-1.8871 3.9431-4.215 3.9431-2.3278 0-4.2149-1.7654-4.2149-3.9431 0-2.1777 1.8871-3.943 4.2149-3.943 2.3279 0 4.215 1.7654 4.215 3.943z"/>
<path d="m149.94 456.14c0 2.1777-1.8871 3.9431-4.215 3.9431-2.3278 0-4.2149-1.7654-4.2149-3.9431 0-2.1777 1.8871-3.943 4.2149-3.943 2.3279 0 4.215 1.7654 4.215 3.943z"/>
<path d="m153.99 463.54c0 2.1777-1.8871 3.943-4.215 3.943-2.3278 0-4.2149-1.7653-4.2149-3.943 0-2.1777 1.8871-3.9431 4.2149-3.9431 2.3279 0 4.215 1.7653 4.215 3.9431z"/>
<path d="m158.29 470.78c0 2.1777-1.8871 3.943-4.215 3.943-2.3278 0-4.2149-1.7653-4.2149-3.943s1.8871-3.943 4.2149-3.943c2.3279 0 4.215 1.7654 4.215 3.943z"/>
<path d="m162.81 477.9c0 2.1777-1.8871 3.943-4.215 3.943-2.3278 0-4.2149-1.7653-4.2149-3.943s1.8871-3.943 4.2149-3.943c2.3279 0 4.215 1.7654 4.215 3.943z"/>
<path d="m167.59 484.84c0 2.1777-1.8871 3.943-4.215 3.943-2.3278 0-4.2149-1.7653-4.2149-3.943 0-2.1777 1.8871-3.9431 4.2149-3.9431 2.3279 0 4.215 1.7653 4.215 3.9431z"/>
<path d="m172.59 491.63c0 2.1777-1.8871 3.943-4.215 3.943-2.3278 0-4.2149-1.7653-4.2149-3.943 0-2.1777 1.8871-3.943 4.2149-3.943 2.3279 0 4.215 1.7654 4.215 3.943z"/>
<path d="m177.82 498.24c0 2.1777-1.8871 3.943-4.215 3.943-2.3278 0-4.2149-1.7653-4.2149-3.943 0-2.1777 1.8871-3.943 4.2149-3.943 2.3279 0 4.215 1.7653 4.215 3.943z"/>
<path d="m183.29 504.65c0 2.1777-1.8871 3.943-4.215 3.943-2.3278 0-4.2149-1.7653-4.2149-3.943 0-2.1777 1.8871-3.943 4.2149-3.943 2.3279 0 4.215 1.7653 4.215 3.943z"/>
<path d="m188.97 510.87c0 2.1777-1.8871 3.9431-4.215 3.9431-2.3278 0-4.2149-1.7653-4.2149-3.9431 0-2.1777 1.8871-3.943 4.2149-3.943 2.3279 0 4.215 1.7653 4.215 3.943z"/>
<path d="m194.9 516.87c0 2.1777-1.8871 3.9431-4.215 3.9431-2.3278 0-4.2149-1.7654-4.2149-3.9431 0-2.1777 1.8871-3.943 4.2149-3.943 2.3279 0 4.215 1.7654 4.215 3.943z"/>
<path d="m201.04 522.64c0 2.1777-1.8871 3.943-4.215 3.943-2.3278 0-4.2149-1.7654-4.2149-3.943s1.8871-3.943 4.2149-3.943c2.3279 0 4.215 1.7654 4.215 3.943z"/>
<path d="m207.39 528.18c0 2.1777-1.8871 3.9431-4.215 3.9431-2.3278 0-4.2149-1.7654-4.2149-3.9431 0-2.1776 1.8871-3.943 4.2149-3.943 2.3279 0 4.215 1.7654 4.215 3.943z"/>
<path d="m213.96 533.46c0 2.1777-1.8871 3.943-4.215 3.943-2.3278 0-4.2149-1.7654-4.2149-3.943s1.8871-3.943 4.2149-3.943c2.3279 0 4.215 1.7654 4.215 3.943z"/>
<path d="m220.72 538.5c0 2.1777-1.8871 3.943-4.215 3.943-2.3278 0-4.2149-1.7653-4.2149-3.943 0-2.1777 1.8871-3.943 4.2149-3.943 2.3279 0 4.215 1.7653 4.215 3.943z"/>
<path d="m227.7 543.23c0 2.1777-1.8871 3.943-4.215 3.943-2.3278 0-4.2149-1.7653-4.2149-3.943s1.8871-3.943 4.2149-3.943c2.3279 0 4.215 1.7654 4.215 3.943z"/>
<path d="m234.88 547.64c0 2.1777-1.8871 3.9431-4.215 3.9431-2.3278 0-4.2149-1.7654-4.2149-3.9431s1.8871-3.943 4.2149-3.943c2.3279 0 4.215 1.7654 4.215 3.943z"/>
<path d="m242.26 551.71c0 2.1777-1.8871 3.9431-4.215 3.9431-2.3278 0-4.2149-1.7654-4.2149-3.9431 0-2.1777 1.8871-3.943 4.2149-3.943 2.3279 0 4.215 1.7654 4.215 3.943z"/>
<path d="m249.81 555.46c0 2.1777-1.8871 3.943-4.215 3.943-2.3278 0-4.2149-1.7653-4.2149-3.943 0-2.1777 1.8871-3.943 4.2149-3.943 2.3279 0 4.215 1.7654 4.215 3.943z"/>
<path d="m257.52 558.87c0 2.1777-1.8871 3.943-4.215 3.943-2.3278 0-4.2149-1.7653-4.2149-3.943 0-2.1777 1.8871-3.943 4.2149-3.943 2.3279 0 4.215 1.7653 4.215 3.943z"/>
<path d="m265.37 561.93c0 2.1776-1.8871 3.943-4.215 3.943-2.3278 0-4.2149-1.7654-4.2149-3.943 0-2.1777 1.8871-3.9431 4.2149-3.9431 2.3279 0 4.215 1.7653 4.215 3.9431z"/>
<path d="m273.36 564.63c0 2.1777-1.8871 3.943-4.215 3.943-2.3278 0-4.215-1.7653-4.215-3.943 0-2.1777 1.8871-3.943 4.215-3.943 2.3279 0 4.215 1.7654 4.215 3.943z"/>
<path d="m281.46 566.95c0 2.1776-1.8871 3.943-4.215 3.943-2.3278 0-4.2149-1.7654-4.2149-3.943 0-2.1777 1.8871-3.9431 4.2149-3.9431 2.3279 0 4.215 1.7654 4.215 3.9431z"/>
<path d="m289.66 568.88c0 2.1777-1.8871 3.943-4.215 3.943-2.3278 0-4.2149-1.7653-4.2149-3.943 0-2.1777 1.8871-3.943 4.2149-3.943 2.3279 0 4.215 1.7654 4.215 3.943z"/>
<path d="m297.95 570.42c0 2.1777-1.8871 3.943-4.215 3.943-2.3278 0-4.2149-1.7654-4.2149-3.943 0-2.1776 1.8871-3.9431 4.2149-3.9431 2.3279 0 4.215 1.7654 4.215 3.9431z"/>
<path d="m306.31 571.54c0 2.1777-1.887 3.943-4.2149 3.943-2.3279 0-4.215-1.7653-4.215-3.943 0-2.1777 1.8871-3.943 4.215-3.943 2.3278 0 4.2149 1.7653 4.2149 3.943z"/>
<path d="m314.7 572.24c0 2.1777-1.887 3.943-4.2149 3.943-2.3279 0-4.215-1.7654-4.215-3.943 0-2.1777 1.8871-3.9431 4.215-3.9431 2.3278 0 4.2149 1.7654 4.2149 3.9431z"/>
<path d="m323.13 572.51c0 2.1777-1.8871 3.943-4.215 3.943-2.3278 0-4.2149-1.7653-4.2149-3.943 0-2.1777 1.8871-3.9431 4.2149-3.9431 2.3279 0 4.215 1.7654 4.215 3.9431z"/>
<path d="m331.55 572.32c0 2.1777-1.887 3.943-4.2149 3.943s-4.2149-1.7653-4.2149-3.943c0-2.1777 1.887-3.943 4.2149-3.943s4.2149 1.7653 4.2149 3.943z"/>
<path d="m339.96 571.66c0 2.1776-1.887 3.943-4.2149 3.943s-4.2149-1.7654-4.2149-3.943c0-2.1777 1.8871-3.9431 4.2149-3.9431s4.2149 1.7654 4.2149 3.9431z"/>
<path d="m348.31 570.54c0 2.1777-1.8871 3.943-4.2149 3.943-2.3279 0-4.2149-1.7653-4.2149-3.943 0-2.1777 1.8871-3.943 4.2149-3.943 2.3278 0 4.2149 1.7654 4.2149 3.943z"/>
<path d="m356.58 568.93c0 2.1777-1.8871 3.943-4.215 3.943-2.3278 0-4.2149-1.7653-4.2149-3.943 0-2.1777 1.8871-3.9431 4.2149-3.9431 2.3279 0 4.215 1.7654 4.215 3.9431z"/>
<path d="m364.74 566.81c0 2.1776-1.8871 3.943-4.215 3.943-2.3278 0-4.2149-1.7654-4.2149-3.943 0-2.1777 1.8871-3.9431 4.2149-3.9431 2.3279 0 4.215 1.7654 4.215 3.9431z"/>
<path d="m372.73 564.15c0 2.1777-1.8871 3.943-4.215 3.943s-4.2149-1.7653-4.2149-3.943 1.8871-3.943 4.2149-3.943 4.215 1.7654 4.215 3.943z"/>
<path d="m380.55 560.99c0 2.1777-1.887 3.943-4.2149 3.943-2.3278 0-4.2149-1.7653-4.2149-3.943 0-2.1777 1.887-3.943 4.2149-3.943 2.3279 0 4.2149 1.7653 4.2149 3.943z"/>
<path d="m388.15 557.36c0 2.1777-1.8871 3.943-4.2149 3.943s-4.2149-1.7653-4.2149-3.943 1.887-3.943 4.2149-3.943 4.2149 1.7654 4.2149 3.943z"/>
<path d="m395.52 553.26c0 2.1777-1.887 3.9431-4.2149 3.9431s-4.2149-1.7654-4.2149-3.9431 1.8871-3.943 4.2149-3.943 4.2149 1.7654 4.2149 3.943z"/>
<path d="m402.62 548.72c0 2.1776-1.887 3.943-4.2149 3.943-2.3279 0-4.2149-1.7654-4.2149-3.943 0-2.1777 1.887-3.943 4.2149-3.943 2.3279 0 4.2149 1.7654 4.2149 3.943z"/>
<path d="m409.43 543.75c0 2.1777-1.887 3.943-4.2149 3.943-2.3278 0-4.2149-1.7653-4.2149-3.943 0-2.1777 1.887-3.943 4.2149-3.943 2.3279 0 4.2149 1.7654 4.2149 3.943z"/>
<path d="m415.9 538.35c0 2.1776-1.8871 3.943-4.2149 3.943s-4.2149-1.7654-4.2149-3.943c0-2.1777 1.887-3.9431 4.2149-3.9431s4.2149 1.7654 4.2149 3.9431z"/>
<path d="m422.01 532.55c0 2.1776-1.8871 3.943-4.215 3.943-2.3278 0-4.2149-1.7654-4.2149-3.943 0-2.1777 1.8871-3.9431 4.2149-3.9431 2.3279 0 4.215 1.7654 4.215 3.9431z"/>
<path d="m427.73 526.36c0 2.1777-1.8871 3.943-4.215 3.943-2.3278 0-4.2149-1.7653-4.2149-3.943 0-2.1777 1.8871-3.943 4.2149-3.943 2.3279 0 4.215 1.7654 4.215 3.943z"/>
<path d="m433.02 519.8c0 2.1777-1.8871 3.9431-4.215 3.9431-2.3278 0-4.2149-1.7654-4.2149-3.9431s1.8871-3.943 4.2149-3.943c2.3279 0 4.215 1.7653 4.215 3.943z"/>
<path d="m437.84 512.89c0 2.1777-1.8871 3.943-4.2149 3.943s-4.2149-1.7653-4.2149-3.943c0-2.1777 1.887-3.943 4.2149-3.943s4.2149 1.7653 4.2149 3.943z"/>
<path d="m442.16 505.65c0 2.1777-1.8871 3.9431-4.2149 3.9431s-4.2149-1.7653-4.2149-3.9431c0-2.1777 1.887-3.943 4.2149-3.943s4.2149 1.7653 4.2149 3.943z"/>
<path d="m445.94 498.12c0 2.1777-1.8871 3.943-4.215 3.943-2.3278 0-4.2149-1.7653-4.2149-3.943 0-2.1777 1.8871-3.943 4.2149-3.943 2.3279 0 4.215 1.7654 4.215 3.943z"/>
<path d="m449.14 490.33c0 2.1777-1.8871 3.9431-4.2149 3.9431s-4.2149-1.7654-4.2149-3.9431 1.887-3.943 4.2149-3.943 4.2149 1.7654 4.2149 3.943z"/>
<path d="m451.75 482.31c0 2.1776-1.8871 3.943-4.215 3.943-2.3278 0-4.2149-1.7654-4.2149-3.943 0-2.1777 1.8871-3.9431 4.2149-3.9431 2.3279 0 4.215 1.7654 4.215 3.9431z"/>
<path d="m453.69 474.11c0 2.1777-1.8871 3.943-4.215 3.943-2.3278 0-4.2149-1.7653-4.2149-3.943 0-2.1777 1.8871-3.943 4.2149-3.943 2.3279 0 4.215 1.7653 4.215 3.943z"/>
<path d="m454.98 465.79c0 2.1777-1.887 3.943-4.2149 3.943s-4.2149-1.7653-4.2149-3.943c0-2.1777 1.8871-3.943 4.2149-3.943s4.2149 1.7654 4.2149 3.943z"/>
<path d="m455.64 457.38c0 2.1777-1.8871 3.943-4.215 3.943s-4.2149-1.7654-4.2149-3.943 1.8871-3.9431 4.2149-3.9431 4.215 1.7654 4.215 3.9431z"/>
<path d="m455.67 448.96c0 2.1777-1.887 3.943-4.2149 3.943-2.3279 0-4.2149-1.7653-4.2149-3.943 0-2.1777 1.887-3.943 4.2149-3.943s4.2149 1.7653 4.2149 3.943z"/>
<path d="m455.05 440.55c0 2.1777-1.8871 3.943-4.215 3.943-2.3278 0-4.2149-1.7653-4.2149-3.943 0-2.1777 1.8871-3.9431 4.2149-3.9431 2.3279 0 4.215 1.7654 4.215 3.9431z"/>
<path d="m453.85 432.21c0 2.1777-1.887 3.9431-4.2149 3.9431-2.3279 0-4.2149-1.7654-4.2149-3.9431s1.887-3.943 4.2149-3.943c2.3279 0 4.2149 1.7653 4.2149 3.943z"/>
<path d="m452.07 423.97c0 2.1777-1.8871 3.943-4.215 3.943-2.3278 0-4.2149-1.7654-4.2149-3.943s1.8871-3.943 4.2149-3.943 4.215 1.7654 4.215 3.943z"/>
<path d="m449.72 415.88c0 2.1777-1.8871 3.943-4.215 3.943-2.3278 0-4.2149-1.7654-4.2149-3.943s1.8871-3.943 4.2149-3.943c2.3279 0 4.215 1.7654 4.215 3.943z"/>
<path d="m446.82 407.97c0 2.1777-1.8871 3.943-4.2149 3.943-2.3279 0-4.2149-1.7653-4.2149-3.943 0-2.1777 1.887-3.9431 4.2149-3.9431 2.3278 0 4.2149 1.7653 4.2149 3.9431z"/>
<path d="m443.38 400.27c0 2.1777-1.887 3.943-4.2149 3.943-2.3278 0-4.2149-1.7654-4.2149-3.943 0-2.1776 1.8871-3.943 4.2149-3.943 2.3279 0 4.2149 1.7654 4.2149 3.943z"/>
<path d="m439.42 392.83c0 2.1777-1.8871 3.943-4.215 3.943-2.3278 0-4.2149-1.7654-4.2149-3.943 0-2.1777 1.8871-3.943 4.2149-3.943 2.3279 0 4.215 1.7654 4.215 3.943z"/>
<path d="m434.96 385.69c0 2.1777-1.8871 3.943-4.215 3.943-2.3278 0-4.2149-1.7654-4.2149-3.943 0-2.1777 1.8871-3.943 4.2149-3.943 2.3279 0 4.215 1.7654 4.215 3.943z"/>
<path d="m429.98 378.88c0 2.1776-1.8871 3.943-4.215 3.943-2.3278 0-4.2149-1.7654-4.2149-3.943 0-2.1777 1.8871-3.943 4.2149-3.943 2.3279 0 4.215 1.7654 4.215 3.943z"/>
<path d="m424.65 372.35c0 2.1777-1.887 3.9431-4.2149 3.9431-2.3279 0-4.2149-1.7654-4.2149-3.9431 0-2.1776 1.887-3.943 4.2149-3.943 2.3279 0 4.2149 1.7654 4.2149 3.943z"/>
<path d="m419.24 365.9c0 2.1777-1.8871 3.943-4.2149 3.943s-4.2149-1.7654-4.2149-3.943c0-2.1777 1.887-3.943 4.2149-3.943s4.2149 1.7654 4.2149 3.943z"/>
<path d="m413.55 359.68c0 2.1777-1.887 3.943-4.2149 3.943-2.3279 0-4.2149-1.7654-4.2149-3.943 0-2.1776 1.887-3.943 4.2149-3.943 2.3279 0 4.2149 1.7654 4.2149 3.943z"/>
<path d="m407.68 353.63c0 2.1777-1.8871 3.943-4.215 3.943-2.3278 0-4.2149-1.7654-4.2149-3.943 0-2.1776 1.8871-3.943 4.2149-3.943 2.3279 0 4.215 1.7654 4.215 3.943z"/>
<path d="m401.66 347.72c0 2.1777-1.887 3.943-4.2149 3.943-2.3279 0-4.2149-1.7654-4.2149-3.943 0-2.1776 1.887-3.943 4.2149-3.943s4.2149 1.7654 4.2149 3.943z"/>
<path d="m395.55 341.92c0 2.1777-1.8871 3.943-4.2149 3.943s-4.2149-1.7654-4.2149-3.943c0-2.1777 1.887-3.9431 4.2149-3.9431s4.2149 1.7654 4.2149 3.9431z"/>
<path d="m389.38 336.17c0 2.1777-1.8871 3.943-4.215 3.943s-4.2149-1.7654-4.2149-3.943c0-2.1776 1.8871-3.943 4.2149-3.943s4.215 1.7654 4.215 3.943z"/>
<path d="m383.21 330.43c0 2.1777-1.887 3.943-4.2149 3.943s-4.2149-1.7654-4.2149-3.943c0-2.1777 1.8871-3.943 4.2149-3.943s4.2149 1.7654 4.2149 3.943z"/>
<path d="m377.06 324.66c0 2.1777-1.8871 3.943-4.215 3.943-2.3278 0-4.2149-1.7654-4.2149-3.943 0-2.1777 1.8871-3.943 4.2149-3.943 2.3279 0 4.215 1.7654 4.215 3.943z"/>
<path d="m371 318.8c0 2.1777-1.887 3.943-4.2149 3.943s-4.2149-1.7654-4.2149-3.943 1.8871-3.943 4.2149-3.943 4.2149 1.7654 4.2149 3.943z"/>
<path d="m365.07 312.82c0 2.1777-1.8871 3.943-4.215 3.943-2.3278 0-4.2149-1.7654-4.2149-3.943s1.8871-3.943 4.2149-3.943c2.3279 0 4.215 1.7654 4.215 3.943z"/>
<path d="m359.28 306.68c0 2.1777-1.887 3.943-4.2149 3.943-2.3279 0-4.2149-1.7654-4.2149-3.943 0-2.1776 1.887-3.943 4.2149-3.943 2.3278 0 4.2149 1.7654 4.2149 3.943z"/>
<path d="m353.76 300.32c0 2.1777-1.8871 3.943-4.215 3.943-2.3278 0-4.2149-1.7654-4.2149-3.943 0-2.1777 1.8871-3.943 4.2149-3.943 2.3279 0 4.215 1.7654 4.215 3.943z"/>
<path d="m348.52 293.71c0 2.1777-1.8871 3.943-4.215 3.943-2.3278 0-4.2149-1.7654-4.2149-3.943 0-2.1777 1.8871-3.943 4.2149-3.943 2.3279 0 4.215 1.7654 4.215 3.943z"/>
<path d="m343.65 286.84c0 2.1777-1.887 3.943-4.2149 3.943s-4.2149-1.7654-4.2149-3.943c0-2.1777 1.887-3.943 4.2149-3.943s4.2149 1.7654 4.2149 3.943z"/>
<path d="m339.19 279.69c0 2.1777-1.8871 3.943-4.215 3.943-2.3278 0-4.2149-1.7654-4.2149-3.943 0-2.1776 1.8871-3.943 4.2149-3.943s4.215 1.7654 4.215 3.943z"/>
<path d="m335.34 272.19c0 2.1777-1.8871 3.943-4.215 3.943s-4.2149-1.7654-4.2149-3.943c0-2.1777 1.887-3.9431 4.2149-3.9431s4.215 1.7654 4.215 3.9431z"/>
<path d="m332.47 264.27c0 2.1777-1.8871 3.943-4.2149 3.943-2.3279 0-4.215-1.7654-4.215-3.943 0-2.1776 1.8871-3.943 4.215-3.943 2.3278 0 4.2149 1.7654 4.2149 3.943z"/>
<path d="m330.59 256.06c0 2.1776-1.8871 3.943-4.215 3.943-2.3278 0-4.2149-1.7654-4.2149-3.943 0-2.1777 1.8871-3.9431 4.2149-3.9431 2.3279 0 4.215 1.7654 4.215 3.9431z"/>
<path d="m329.78 247.68c0 2.1777-1.8871 3.943-4.215 3.943-2.3278 0-4.2149-1.7654-4.2149-3.943 0-2.1777 1.8871-3.943 4.2149-3.943 2.3279 0 4.215 1.7654 4.215 3.943z"/>
<path d="m330.13 239.26c0 2.1777-1.8871 3.943-4.2149 3.943-2.3279 0-4.215-1.7654-4.215-3.943s1.8871-3.9431 4.215-3.9431c2.3278 0 4.2149 1.7654 4.2149 3.9431z"/>
<path d="m331.76 231c0 2.1777-1.8871 3.943-4.215 3.943-2.3278 0-4.2149-1.7654-4.2149-3.943 0-2.1777 1.8871-3.943 4.2149-3.943 2.3279 0 4.215 1.7654 4.215 3.943z"/>
<path d="m334.77 223.14c0 2.1777-1.8871 3.943-4.215 3.943-2.3278 0-4.2149-1.7654-4.2149-3.943 0-2.1777 1.8871-3.943 4.2149-3.943 2.3279 0 4.215 1.7654 4.215 3.943z"/>
<path d="m339.17 215.97c0 2.1777-1.887 3.943-4.2149 3.943s-4.215-1.7654-4.215-3.943c0-2.1777 1.8871-3.943 4.215-3.943s4.2149 1.7654 4.2149 3.943z"/>
<path d="m344.41 209.37c0 2.1777-1.8871 3.943-4.2149 3.943-2.3279 0-4.215-1.7654-4.215-3.943 0-2.1777 1.8871-3.943 4.215-3.943 2.3278 0 4.2149 1.7654 4.2149 3.943z"/>
<path d="m350.35 203.4c0 2.1777-1.887 3.943-4.2149 3.943s-4.2149-1.7654-4.2149-3.943c0-2.1777 1.8871-3.943 4.2149-3.943s4.2149 1.7654 4.2149 3.943z"/>
<path d="m356.9 198.1c0 2.1777-1.8871 3.943-4.215 3.943-2.3279 0-4.2149-1.7654-4.2149-3.943s1.8871-3.943 4.2149-3.943c2.3278 0 4.215 1.7654 4.215 3.943z"/>
<path d="m363.97 193.52c0 2.1777-1.8871 3.9431-4.215 3.9431-2.3278 0-4.2149-1.7654-4.2149-3.9431 0-2.1777 1.8871-3.943 4.2149-3.943 2.3279 0 4.215 1.7654 4.215 3.943z"/>
<path d="m371.49 189.71c0 2.1777-1.8871 3.943-4.215 3.943-2.3278 0-4.2149-1.7654-4.2149-3.943 0-2.1777 1.8871-3.9431 4.2149-3.9431 2.3279 0 4.215 1.7654 4.215 3.9431z"/>
<path d="m379.36 186.71c0 2.1777-1.8871 3.943-4.215 3.943-2.3278 0-4.2149-1.7654-4.2149-3.943 0-2.1777 1.8871-3.943 4.2149-3.943 2.3279 0 4.215 1.7654 4.215 3.943z"/>
<path d="m387.51 184.58c0 2.1777-1.8871 3.943-4.215 3.943-2.3278 0-4.2149-1.7654-4.2149-3.943 0-2.1777 1.8871-3.9431 4.2149-3.9431 2.3279 0 4.215 1.7654 4.215 3.9431z"/>
<path d="m395.85 183.37c0 2.1777-1.8871 3.943-4.2149 3.943s-4.2149-1.7654-4.2149-3.943c0-2.1777 1.887-3.943 4.2149-3.943s4.2149 1.7654 4.2149 3.943z"/>
<path d="m404.27 183.15c0 2.1777-1.887 3.9431-4.2149 3.9431-2.3278 0-4.2149-1.7654-4.2149-3.9431s1.887-3.943 4.2149-3.943c2.3279 0 4.2149 1.7654 4.2149 3.943z"/>
<path d="m412.65 183.98c0 2.1777-1.887 3.943-4.2149 3.943-2.3279 0-4.2149-1.7654-4.2149-3.943 0-2.1777 1.887-3.943 4.2149-3.943s4.2149 1.7654 4.2149 3.943z"/>
<path d="m420.86 185.88c0 2.1777-1.8871 3.943-4.215 3.943-2.3278 0-4.2149-1.7654-4.2149-3.943s1.8871-3.943 4.2149-3.943c2.3279 0 4.215 1.7654 4.215 3.943z"/>
<path d="m428.53 189.32c0 2.1777-1.8871 3.943-4.215 3.943-2.3278 0-4.2149-1.7654-4.2149-3.943 0-2.1777 1.8871-3.943 4.2149-3.943 2.3279 0 4.215 1.7654 4.215 3.943z"/>
<path d="m435.43 194.15c0 2.1777-1.8871 3.943-4.2149 3.943s-4.2149-1.7654-4.2149-3.943c0-2.1777 1.887-3.943 4.2149-3.943s4.2149 1.7654 4.2149 3.943z"/>
<path d="m441.31 200.17c0 2.1777-1.887 3.943-4.2149 3.943-2.3279 0-4.2149-1.7654-4.2149-3.943 0-2.1777 1.887-3.943 4.2149-3.943s4.2149 1.7654 4.2149 3.943z"/>
<path d="m445.82 207.27c0 2.1777-1.887 3.943-4.2149 3.943s-4.2149-1.7654-4.2149-3.943c0-2.1777 1.8871-3.943 4.2149-3.943s4.2149 1.7654 4.2149 3.943z"/>
<path d="m448.58 215.21c0 2.1777-1.887 3.943-4.2149 3.943s-4.2149-1.7654-4.2149-3.943 1.8871-3.943 4.2149-3.943 4.2149 1.7654 4.2149 3.943z"/>
<path d="m449.21 223.6c0 2.1777-1.887 3.943-4.2149 3.943s-4.2149-1.7654-4.2149-3.943c0-2.1777 1.8871-3.943 4.2149-3.943s4.2149 1.7654 4.2149 3.943z"/>
<path d="m447.71 231.86c0 2.1777-1.8871 3.943-4.2149 3.943s-4.2149-1.7654-4.2149-3.943c0-2.1777 1.887-3.943 4.2149-3.943s4.2149 1.7654 4.2149 3.943z"/>
<path d="m444.05 239.43c0 2.1777-1.8871 3.943-4.215 3.943-2.3278 0-4.2149-1.7654-4.2149-3.943s1.8871-3.943 4.2149-3.943c2.3279 0 4.215 1.7654 4.215 3.943z"/>
<path d="m438.63 245.86c0 2.1777-1.8871 3.943-4.215 3.943-2.3278 0-4.2149-1.7654-4.2149-3.943s1.8871-3.943 4.2149-3.943c2.3279 0 4.215 1.7654 4.215 3.943z"/>
<path d="m431.82 250.78c0 2.1777-1.887 3.943-4.2149 3.943-2.3279 0-4.2149-1.7654-4.2149-3.943s1.887-3.943 4.2149-3.943 4.2149 1.7654 4.2149 3.943z"/>
<path d="m423.97 253.78c0 2.1777-1.8871 3.9431-4.215 3.9431-2.3278 0-4.2149-1.7654-4.2149-3.9431 0-2.1777 1.8871-3.943 4.2149-3.943 2.3279 0 4.215 1.7654 4.215 3.943z"/>
<path d="m415.6 254.56c0 2.1777-1.8871 3.943-4.215 3.943-2.3278 0-4.2149-1.7654-4.2149-3.943 0-2.1777 1.8871-3.943 4.2149-3.943 2.3279 0 4.215 1.7654 4.215 3.943z"/>
<path d="m407.23 255.43c0 2.1777-1.8871 3.943-4.2149 3.943-2.3279 0-4.2149-1.7654-4.2149-3.943 0-2.1776 1.887-3.943 4.2149-3.943 2.3278 0 4.2149 1.7654 4.2149 3.943z"/>
<path d="m399.71 259.04c0 2.1776-1.887 3.943-4.2149 3.943-2.3279 0-4.2149-1.7654-4.2149-3.943 0-2.1777 1.887-3.943 4.2149-3.943 2.3279 0 4.2149 1.7654 4.2149 3.943z"/>
<path d="m394.88 265.87c0 2.1777-1.887 3.943-4.2149 3.943-2.3279 0-4.2149-1.7654-4.2149-3.943 0-2.1777 1.887-3.9431 4.2149-3.9431 2.3279 0 4.2149 1.7654 4.2149 3.9431z"/>
<path d="m393.58 274.12c0 2.1777-1.8871 3.9431-4.2149 3.9431s-4.2149-1.7654-4.2149-3.9431c0-2.1777 1.887-3.943 4.2149-3.943s4.2149 1.7654 4.2149 3.943z"/>
<path d="m395.92 282.15c0 2.1777-1.8871 3.943-4.215 3.943-2.3278 0-4.2149-1.7654-4.2149-3.943 0-2.1777 1.8871-3.943 4.2149-3.943 2.3279 0 4.215 1.7654 4.215 3.943z"/>
<path d="m401.54 288.32c0 2.1776-1.8871 3.943-4.2149 3.943s-4.2149-1.7654-4.2149-3.943c0-2.1777 1.887-3.9431 4.2149-3.9431s4.2149 1.7654 4.2149 3.9431z"/>
<path d="m408.87 292.45c0 2.1777-1.887 3.9431-4.2149 3.9431s-4.2149-1.7654-4.2149-3.9431c0-2.1777 1.8871-3.943 4.2149-3.943s4.2149 1.7654 4.2149 3.943z"/>
<path d="m416.86 295.11c0 2.1777-1.8871 3.943-4.215 3.943s-4.2149-1.7654-4.2149-3.943 1.8871-3.9431 4.2149-3.9431 4.215 1.7654 4.215 3.9431z"/>
<path d="m425.07 296.99c0 2.1777-1.8871 3.943-4.215 3.943-2.3278 0-4.2149-1.7654-4.2149-3.943 0-2.1777 1.8871-3.9431 4.2149-3.9431 2.3279 0 4.215 1.7654 4.215 3.9431z"/>
<path d="m433.38 298.39c0 2.1777-1.887 3.943-4.2149 3.943s-4.2149-1.7654-4.2149-3.943c0-2.1777 1.8871-3.943 4.2149-3.943s4.2149 1.7654 4.2149 3.943z"/>
<path d="m441.79 298.83c0 2.1777-1.887 3.943-4.2149 3.943-2.3279 0-4.2149-1.7654-4.2149-3.943 0-2.1776 1.887-3.943 4.2149-3.943s4.2149 1.7654 4.2149 3.943z"/>
<path d="m450.21 298.46c0 2.1777-1.8871 3.943-4.215 3.943-2.3278 0-4.2149-1.7654-4.2149-3.943 0-2.1777 1.8871-3.943 4.2149-3.943 2.3279 0 4.215 1.7654 4.215 3.943z"/>
<path d="m458.56 297.33c0 2.1777-1.8871 3.943-4.2149 3.943s-4.2149-1.7654-4.2149-3.943c0-2.1777 1.8871-3.9431 4.2149-3.9431s4.2149 1.7654 4.2149 3.9431z"/>
<path d="m466.77 295.44c0 2.1776-1.887 3.943-4.2149 3.943s-4.2149-1.7654-4.2149-3.943c0-2.1777 1.8871-3.943 4.2149-3.943s4.2149 1.7654 4.2149 3.943z"/>
<path d="m474.78 292.81c0 2.1776-1.887 3.943-4.2149 3.943-2.3278 0-4.2149-1.7654-4.2149-3.943 0-2.1777 1.887-3.9431 4.2149-3.9431 2.3279 0 4.2149 1.7654 4.2149 3.9431z"/>
<path d="m482.53 289.5c0 2.1777-1.8871 3.943-4.2149 3.943s-4.2149-1.7654-4.2149-3.943c0-2.1777 1.887-3.943 4.2149-3.943s4.2149 1.7654 4.2149 3.943z"/>
<path d="m489.96 285.53c0 2.1777-1.8871 3.943-4.215 3.943-2.3278 0-4.2149-1.7654-4.2149-3.943 0-2.1777 1.8871-3.943 4.2149-3.943 2.3279 0 4.215 1.7654 4.215 3.943z"/>
<path d="m497.01 280.91c0 2.1777-1.8871 3.943-4.2149 3.943s-4.2149-1.7654-4.2149-3.943c0-2.1777 1.887-3.9431 4.2149-3.9431s4.2149 1.7654 4.2149 3.9431z"/>
<path d="m503.6 275.67c0 2.1777-1.8871 3.943-4.215 3.943s-4.2149-1.7654-4.2149-3.943c0-2.1777 1.8871-3.943 4.2149-3.943s4.215 1.7654 4.215 3.943z"/>
<path d="m509.68 269.83c0 2.1776-1.8871 3.943-4.2149 3.943s-4.2149-1.7654-4.2149-3.943c0-2.1777 1.887-3.9431 4.2149-3.9431s4.2149 1.7654 4.2149 3.9431z"/>
<path d="m515.17 263.45c0 2.1777-1.8871 3.9431-4.2149 3.9431-2.3279 0-4.2149-1.7654-4.2149-3.9431 0-2.1776 1.887-3.943 4.2149-3.943 2.3278 0 4.2149 1.7654 4.2149 3.943z"/>
<path d="m519.97 256.52c0 2.1777-1.8871 3.9431-4.215 3.9431-2.3278 0-4.2149-1.7654-4.2149-3.9431 0-2.1776 1.8871-3.943 4.2149-3.943 2.3279 0 4.215 1.7654 4.215 3.943z"/>
<path d="m524.04 249.14c0 2.1777-1.8871 3.943-4.215 3.943-2.3278 0-4.2149-1.7654-4.2149-3.943 0-2.1777 1.8872-3.943 4.2149-3.943 2.3279 0 4.215 1.7654 4.215 3.943z"/>
<path d="m527.39 241.41c0 2.1777-1.887 3.943-4.2149 3.943s-4.2149-1.7654-4.2149-3.943c0-2.1777 1.887-3.9431 4.2149-3.9431s4.2149 1.7654 4.2149 3.9431z"/>
<path d="m530.1 233.44c0 2.1777-1.887 3.943-4.2149 3.943s-4.215-1.7654-4.215-3.943 1.8871-3.943 4.215-3.943 4.2149 1.7654 4.2149 3.943z"/>
<path d="m532.02 225.23c0 2.1777-1.8871 3.943-4.215 3.943s-4.215-1.7654-4.215-3.943c0-2.1777 1.8871-3.943 4.215-3.943s4.215 1.7654 4.215 3.943z"/>
<path d="m533.17 216.89c0 2.1777-1.8871 3.943-4.215 3.943-2.3278 0-4.215-1.7654-4.215-3.943s1.8872-3.943 4.215-3.943c2.3279 0 4.215 1.7654 4.215 3.943z"/>
<path d="m533.57 208.47c0 2.1777-1.8871 3.943-4.215 3.943s-4.215-1.7654-4.215-3.943c0-2.1777 1.8871-3.943 4.215-3.943s4.215 1.7654 4.215 3.943z"/>
<path d="m533.22 200.05c0 2.1777-1.8872 3.943-4.215 3.943s-4.2149-1.7654-4.2149-3.943 1.8871-3.943 4.2149-3.943 4.215 1.7654 4.215 3.943z"/>
<path d="m532.16 191.69c0 2.1777-1.8871 3.943-4.215 3.943-2.3278 0-4.2149-1.7654-4.2149-3.943 0-2.1777 1.8871-3.943 4.2149-3.943 2.3279 0 4.215 1.7654 4.215 3.943z"/>
<path d="m530.41 183.45c0 2.1777-1.8871 3.943-4.2149 3.943-2.3279 0-4.215-1.7654-4.215-3.943s1.8871-3.943 4.215-3.943c2.3278 0 4.2149 1.7654 4.2149 3.943z"/>
<path d="m527.97 175.38c0 2.1777-1.8871 3.943-4.215 3.943s-4.215-1.7654-4.215-3.943c0-2.1777 1.8871-3.943 4.215-3.943s4.215 1.7654 4.215 3.943z"/>
<path d="m524.87 167.54c0 2.1777-1.8871 3.9431-4.215 3.9431-2.3278 0-4.2149-1.7654-4.2149-3.9431 0-2.1777 1.8871-3.943 4.2149-3.943 2.3279 0 4.215 1.7654 4.215 3.943z"/>
<path d="m521.14 159.99c0 2.1777-1.8871 3.943-4.215 3.943s-4.215-1.7654-4.215-3.943c0-2.1777 1.8871-3.943 4.215-3.943s4.215 1.7654 4.215 3.943z"/>
<path d="m516.75 152.8c0 2.1777-1.8871 3.943-4.215 3.943-2.3278 0-4.215-1.7654-4.215-3.943 0-2.1777 1.8871-3.943 4.215-3.943 2.3279 0 4.215 1.7654 4.215 3.943z"/>
<path d="m511.76 146.01c0 2.1777-1.8871 3.943-4.215 3.943-2.3278 0-4.2149-1.7654-4.2149-3.943 0-2.1777 1.8871-3.943 4.2149-3.943 2.3279 0 4.215 1.7654 4.215 3.943z"/>
<path d="m506.17 139.7c0 2.1777-1.8871 3.943-4.215 3.943-2.3278 0-4.2149-1.7654-4.2149-3.943 0-2.1777 1.8871-3.943 4.2149-3.943 2.3279 0 4.215 1.7654 4.215 3.943z"/>
<path d="m500.17 133.78c0 2.1777-1.8871 3.943-4.215 3.943s-4.2149-1.7654-4.2149-3.943 1.8871-3.943 4.2149-3.943 4.215 1.7654 4.215 3.943z"/>
<path d="m493.9 128.15c0 2.1777-1.887 3.943-4.2149 3.943s-4.2149-1.7654-4.2149-3.943c0-2.1777 1.8871-3.943 4.2149-3.943s4.2149 1.7654 4.2149 3.943z"/>
<path d="m487.3 122.91c0 2.1777-1.887 3.943-4.2149 3.943-2.3278 0-4.2149-1.7654-4.2149-3.943 0-2.1777 1.8871-3.943 4.2149-3.943 2.3279 0 4.2149 1.7654 4.2149 3.943z"/>
<path d="m480.39 118.09c0 2.1777-1.8871 3.943-4.215 3.943-2.3278 0-4.2149-1.7654-4.2149-3.943 0-2.1777 1.8871-3.943 4.2149-3.943 2.3279 0 4.215 1.7654 4.215 3.943z"/>
<path d="m473.22 113.65c0 2.1777-1.8871 3.943-4.215 3.943s-4.2149-1.7654-4.2149-3.943 1.8871-3.943 4.2149-3.943 4.215 1.7654 4.215 3.943z"/>
<path d="m465.83 109.6c0 2.1777-1.887 3.943-4.2149 3.943s-4.2149-1.7654-4.2149-3.943c0-2.1777 1.8871-3.943 4.2149-3.943s4.2149 1.7654 4.2149 3.943z"/>
<path d="m458.24 105.93c0 2.1777-1.8871 3.943-4.2149 3.943s-4.2149-1.7654-4.2149-3.943c0-2.1777 1.8871-3.943 4.2149-3.943s4.2149 1.7654 4.2149 3.943z"/>
<path d="m450.5 102.6c0 2.1777-1.8871 3.943-4.215 3.943-2.3278 0-4.2149-1.7654-4.2149-3.943 0-2.1777 1.8871-3.943 4.2149-3.943 2.3279 0 4.215 1.7654 4.215 3.943z"/>
<path d="m442.62 99.612c0 2.1777-1.887 3.943-4.2149 3.943-2.3279 0-4.2149-1.7654-4.2149-3.943 0-2.1777 1.887-3.943 4.2149-3.943 2.3278 0 4.2149 1.7654 4.2149 3.943z"/>
<path d="m434.62 96.953c0 2.1777-1.8871 3.943-4.215 3.943-2.3278 0-4.2149-1.7653-4.2149-3.943 0-2.1777 1.8871-3.943 4.2149-3.943 2.3279 0 4.215 1.7654 4.215 3.943z"/>
<path d="m426.53 94.587c0 2.1777-1.8871 3.943-4.215 3.943-2.3278 0-4.2149-1.7654-4.2149-3.943 0-2.1777 1.8871-3.943 4.2149-3.943 2.3279 0 4.215 1.7654 4.215 3.943z"/>
<path d="m418.36 92.498c0 2.1777-1.887 3.943-4.2149 3.943s-4.2149-1.7654-4.2149-3.943c0-2.1777 1.8871-3.943 4.2149-3.943s4.2149 1.7654 4.2149 3.943z"/>
<path d="m410.13 90.671c0 2.1777-1.8871 3.943-4.215 3.943-2.3278 0-4.2149-1.7654-4.2149-3.943 0-2.1777 1.8871-3.943 4.2149-3.943 2.3279 0 4.215 1.7654 4.215 3.943z"/>
<path d="m401.86 89.09c0 2.1777-1.8871 3.943-4.2149 3.943s-4.2149-1.7654-4.2149-3.943c0-2.1777 1.887-3.943 4.2149-3.943s4.2149 1.7654 4.2149 3.943z"/>
<path d="m393.53 87.758c0 2.1777-1.8871 3.943-4.215 3.943-2.3278 0-4.2149-1.7654-4.2149-3.943 0-2.1777 1.8871-3.943 4.2149-3.943 2.3279 0 4.215 1.7654 4.215 3.943z"/>
<path d="m385.17 86.675c0 2.1777-1.8871 3.943-4.2149 3.943s-4.2149-1.7654-4.2149-3.943c0-2.1777 1.887-3.943 4.2149-3.943s4.2149 1.7654 4.2149 3.943z"/>
<path d="m376.79 85.832c0 2.1777-1.8871 3.943-4.215 3.943-2.3278 0-4.2149-1.7654-4.2149-3.943 0-2.1777 1.8871-3.943 4.2149-3.943 2.3279 0 4.215 1.7654 4.215 3.943z"/>
<path d="m368.38 85.223c0 2.1777-1.8871 3.943-4.2149 3.943-2.3279 0-4.2149-1.7654-4.2149-3.943 0-2.1777 1.887-3.943 4.2149-3.943 2.3278 0 4.2149 1.7654 4.2149 3.943z"/>
<path d="m359.96 84.867c0 2.1777-1.8871 3.943-4.215 3.943s-4.2149-1.7654-4.2149-3.943c0-2.1777 1.8871-3.943 4.2149-3.943s4.215 1.7654 4.215 3.943z"/>
<path d="m351.53 84.746c0 2.1777-1.887 3.943-4.2149 3.943s-4.2149-1.7654-4.2149-3.943c0-2.1777 1.8871-3.943 4.2149-3.943s4.2149 1.7654 4.2149 3.943z"/>
</g>
<g stroke="#191919">
<g transform="matrix(.02606 -1.6554 1.8532 .088596 -548.3 601.95)" fill="none">
<g stroke-linecap="round" stroke-width="2">
<path d="m134.5 452.56s-20.47-4.2854-25.904-12.118c-2.0356-2.9344-3.5668-7.4954-0.85317-10.68 2.7137-3.1849 7.4598-2.3971 10.68-0.85315 8.5959 4.121 16.076 23.651 16.076 23.651z" fill="#ff7f00"/>
<path d="m136.02 452.56s20.47-4.2854 25.904-12.118c2.0356-2.9344 3.5668-7.4954 0.85315-10.68-2.7137-3.1849-7.4598-2.3971-10.68-0.85315-8.5959 4.121-16.077 23.651-16.077 23.651z" fill="#7f003f"/>
</g>
<g transform="matrix(1 0 0 -1 -192.03 1427.9)" stroke-linecap="round" stroke-width="2">
<path d="m326.53 976.36s-20.47-4.2853-25.904-12.118c-2.0356-2.9345-3.5669-7.4954-0.85321-10.68 2.7138-3.1849 7.4598-2.3971 10.68-0.85315 8.5959 4.121 16.076 23.651 16.076 23.651z" fill="#7f003f"/>
<path d="m328.05 976.36s20.47-4.2853 25.904-12.118c2.0356-2.9345 3.5668-7.4954 0.85315-10.68-2.7137-3.1849-7.4598-2.3971-10.68-0.85315-8.5959 4.121-16.077 23.651-16.077 23.651z" fill="#ff7f00"/>
</g>
<path d="m137.86 450.75 21.517-18.853" fill="#7f003f" stroke-width="1px"/>
<path d="m132.55 450.95-21.517-18.853" fill="#7f003f" stroke-width="1px"/>
<path d="m132.76 452.72-21.517 18.853" fill="#7f003f" stroke-width="1px"/>
<path d="m137.24 452.72 21.517 18.853" fill="#7f003f" stroke-width="1px"/>
<g fill="#7f003f">
<path d="m135.6 429.8v43.855" stroke-width="1px"/>
<g stroke-width="1px">
<path d="m135.19 430.05c-5.738-3.4838-5.738-3.2788-5.738-3.2788"/>
<path d="m135.66 430.26c5.738-3.4838 5.738-3.2788 5.738-3.2788"/>
<g transform="matrix(1 0 0 -1 0 983.87)">
<path d="m135.19 552.9c-5.738-3.4838-5.738-3.2788-5.738-3.2788"/>
<path d="m135.66 553.1c5.738-3.4838 5.738-3.2789 5.738-3.2789"/>
</g>
</g>
<g stroke-width="1px">
<path d="m135.19 472.98c-5.738 3.4838-5.738 3.2788-5.738 3.2788"/>
<path d="m135.66 472.77c5.738 3.4838 5.738 3.2789 5.738 3.2789"/>
<path d="m134.99 472.67c-5.738-3.4838-5.738-3.2788-5.738-3.2788"/>
<path d="m135.45 472.87c5.738-3.4838 5.738-3.2788 5.738-3.2788"/>
</g>
<path d="m136.45 425.34c0 0.56589-0.45876 1.0246-1.0246 1.0246-0.56589 0-1.0246-0.45874-1.0246-1.0246s0.45876-1.0246 1.0246-1.0246c0.56588 0 1.0246 0.45874 1.0246 1.0246z"/>
<path d="m136.45 477.34c0 0.56589-0.45876 1.0246-1.0246 1.0246-0.56589 0-1.0246-0.45874-1.0246-1.0246s0.45876-1.0246 1.0246-1.0246c0.56588 0 1.0246 0.45874 1.0246 1.0246z"/>
<path d="m130.45 430.51c0 0.56589-0.45876 1.0246-1.0246 1.0246-0.56589 0-1.0246-0.45874-1.0246-1.0246s0.45876-1.0246 1.0246-1.0246c0.56588 0 1.0246 0.45874 1.0246 1.0246z"/>
<path d="m142.45 430.51c0 0.56589-0.45874 1.0246-1.0246 1.0246-0.56591 0-1.0246-0.45874-1.0246-1.0246s0.45874-1.0246 1.0246-1.0246c0.5659 0 1.0246 0.45874 1.0246 1.0246z"/>
<path d="m130.45 472.51c0 0.56589-0.45876 1.0246-1.0246 1.0246-0.56589 0-1.0246-0.45874-1.0246-1.0246s0.45876-1.0246 1.0246-1.0246c0.56588 0 1.0246 0.45874 1.0246 1.0246z"/>
<path d="m142.45 472.51c0 0.56589-0.45874 1.0246-1.0246 1.0246-0.56591 0-1.0246-0.45874-1.0246-1.0246s0.45874-1.0246 1.0246-1.0246c0.5659 0 1.0246 0.45874 1.0246 1.0246z"/>
</g>
<path d="m135.6 429.8v43.855" fill="#7f003f" stroke-width="1px"/>
<g fill="#7f003f" stroke-width="1px">
<path d="m135.19 430.05c-5.738-3.4838-5.738-3.2788-5.738-3.2788"/>
<path d="m135.66 430.26c5.738-3.4838 5.738-3.2788 5.738-3.2788"/>
<g transform="matrix(1 0 0 -1 0 983.87)">
<path d="m135.19 552.9c-5.738-3.4838-5.738-3.2788-5.738-3.2788"/>
<path d="m135.66 553.1c5.738-3.4838 5.738-3.2789 5.738-3.2789"/>
</g>
</g>
<g fill="#0f0" stroke-width="1px">
<path d="m135.19 472.98c-5.738 3.4838-5.738 3.2788-5.738 3.2788"/>
<path d="m135.66 472.77c5.738 3.4838 5.738 3.2789 5.738 3.2789"/>
<path d="m134.99 472.67c-5.738-3.4838-5.738-3.2788-5.738-3.2788"/>
<path d="m135.45 472.87c5.738-3.4838 5.738-3.2788 5.738-3.2788"/>
</g>
<path d="m136.45 425.34c0 0.56589-0.45876 1.0246-1.0246 1.0246-0.56589 0-1.0246-0.45874-1.0246-1.0246s0.45876-1.0246 1.0246-1.0246c0.56588 0 1.0246 0.45874 1.0246 1.0246z" fill="#7f003f"/>
<path d="m136.45 477.34c0 0.56589-0.45876 1.0246-1.0246 1.0246-0.56589 0-1.0246-0.45874-1.0246-1.0246s0.45876-1.0246 1.0246-1.0246c0.56588 0 1.0246 0.45874 1.0246 1.0246z" fill="#7f003f"/>
<path d="m130.45 430.51c0 0.56589-0.45876 1.0246-1.0246 1.0246-0.56589 0-1.0246-0.45874-1.0246-1.0246s0.45876-1.0246 1.0246-1.0246c0.56588 0 1.0246 0.45874 1.0246 1.0246z" fill="#7f003f"/>
<path d="m142.45 430.51c0 0.56589-0.45874 1.0246-1.0246 1.0246-0.56591 0-1.0246-0.45874-1.0246-1.0246s0.45874-1.0246 1.0246-1.0246c0.5659 0 1.0246 0.45874 1.0246 1.0246z" fill="#7f003f"/>
<path d="m130.45 472.51c0 0.56589-0.45876 1.0246-1.0246 1.0246-0.56589 0-1.0246-0.45874-1.0246-1.0246s0.45876-1.0246 1.0246-1.0246c0.56588 0 1.0246 0.45874 1.0246 1.0246z" fill="#7f003f"/>
<path d="m142.45 472.51c0 0.56589-0.45874 1.0246-1.0246 1.0246-0.56591 0-1.0246-0.45874-1.0246-1.0246s0.45874-1.0246 1.0246-1.0246c0.5659 0 1.0246 0.45874 1.0246 1.0246z" fill="#7f003f"/>
<g fill="#7f003f" stroke-width="1px">
<path d="m135.19 430.05c-5.738-3.4838-5.738-3.2788-5.738-3.2788"/>
<path d="m135.66 430.26c5.738-3.4838 5.738-3.2788 5.738-3.2788"/>
<g transform="matrix(1 0 0 -1 0 983.87)">
<path d="m135.19 552.9c-5.738-3.4838-5.738-3.2788-5.738-3.2788"/>
<path d="m135.66 553.1c5.738-3.4838 5.738-3.2789 5.738-3.2789"/>
</g>
</g>
<path d="m136.45 425.34c0 0.56589-0.45876 1.0246-1.0246 1.0246-0.56589 0-1.0246-0.45874-1.0246-1.0246s0.45876-1.0246 1.0246-1.0246c0.56588 0 1.0246 0.45874 1.0246 1.0246z" fill="#7f003f"/>
<path d="m130.45 430.51c0 0.56589-0.45876 1.0246-1.0246 1.0246-0.56589 0-1.0246-0.45874-1.0246-1.0246s0.45876-1.0246 1.0246-1.0246c0.56588 0 1.0246 0.45874 1.0246 1.0246z" fill="#7f003f"/>
<path d="m142.45 430.51c0 0.56589-0.45874 1.0246-1.0246 1.0246-0.56591 0-1.0246-0.45874-1.0246-1.0246s0.45874-1.0246 1.0246-1.0246c0.5659 0 1.0246 0.45874 1.0246 1.0246z" fill="#7f003f"/>
</g>
<g transform="matrix(1.8532 .088596 -.02606 1.6554 248.2 -319.32)" fill="#ff7f00">
<g stroke-width="1px">
<path d="m29.156 413.66c-5.738-3.4838-5.738-3.2788-5.738-3.2788"/>
<path d="m29.623 413.87c5.738-3.4838 5.738-3.2788 5.738-3.2788"/>
<g transform="matrix(1 0 0 -1 0 983.87)">
<path d="m29.156 569.29c-5.738-3.4838-5.738-3.2789-5.738-3.2789"/>
<path d="m29.623 569.49c5.738-3.4838 5.738-3.2788 5.738-3.2788"/>
</g>
</g>
<path d="m30.414 408.95c0 0.56589-0.45874 1.0246-1.0246 1.0246-0.5659 0-1.0246-0.45874-1.0246-1.0246 0-0.56588 0.45874-1.0246 1.0246-1.0246 0.56589 0 1.0246 0.45874 1.0246 1.0246z"/>
<path d="m24.414 414.12c0 0.56586-0.45874 1.0246-1.0246 1.0246-0.5659 0-1.0246-0.45874-1.0246-1.0246 0-0.56592 0.45874-1.0247 1.0246-1.0247 0.56589 0 1.0246 0.45874 1.0246 1.0247z"/>
<path d="m36.414 414.12c0 0.56586-0.45874 1.0246-1.0246 1.0246-0.5659 0-1.0246-0.45874-1.0246-1.0246 0-0.56592 0.45874-1.0247 1.0246-1.0247 0.56589 0 1.0246 0.45874 1.0246 1.0247z"/>
<g stroke-width="1px">
<path d="m29.156 413.66c-5.738-3.4838-5.738-3.2788-5.738-3.2788"/>
<path d="m29.623 413.87c5.738-3.4838 5.738-3.2788 5.738-3.2788"/>
<g transform="matrix(1 0 0 -1 0 983.87)">
<path d="m29.156 569.29c-5.738-3.4838-5.738-3.2789-5.738-3.2789"/>
<path d="m29.623 569.49c5.738-3.4838 5.738-3.2788 5.738-3.2788"/>
</g>
</g>
<path d="m30.414 408.95c0 0.56589-0.45874 1.0246-1.0246 1.0246-0.5659 0-1.0246-0.45874-1.0246-1.0246 0-0.56588 0.45874-1.0246 1.0246-1.0246 0.56589 0 1.0246 0.45874 1.0246 1.0246z"/>
<path d="m24.414 414.12c0 0.56586-0.45874 1.0246-1.0246 1.0246-0.5659 0-1.0246-0.45874-1.0246-1.0246 0-0.56592 0.45874-1.0247 1.0246-1.0247 0.56589 0 1.0246 0.45874 1.0246 1.0247z"/>
<path d="m36.414 414.12c0 0.56586-0.45874 1.0246-1.0246 1.0246-0.5659 0-1.0246-0.45874-1.0246-1.0246 0-0.56592 0.45874-1.0247 1.0246-1.0247 0.56589 0 1.0246 0.45874 1.0246 1.0247z"/>
</g>
<path d="m291.02 468.59c1.594-101.25 1.2141-101.27 1.2141-101.27" fill="#7f003f" stroke-width="1.0613px"/>
<g transform="matrix(1.8532 .088596 .02606 -1.6554 220.8 1445.4)" fill="#ff7f00">
<g stroke-width="1px">
<path d="m29.156 591.83c-5.738-3.4838-5.738-3.2788-5.738-3.2788"/>
<path d="m29.623 592.03c5.738-3.4838 5.738-3.2789 5.738-3.2789"/>
<g transform="matrix(1 0 0 -1 0 983.87)">
<path d="m29.156 391.12c-5.738-3.4838-5.738-3.2788-5.738-3.2788"/>
<path d="m29.623 391.33c5.738-3.4838 5.738-3.2788 5.738-3.2788"/>
</g>
</g>
<path d="m30.414 587.11c0 0.56592-0.45874 1.0247-1.0246 1.0247-0.5659 0-1.0246-0.45874-1.0246-1.0247s0.45874-1.0247 1.0246-1.0247c0.56589 0 1.0246 0.45874 1.0246 1.0247z"/>
<path d="m24.414 592.29c0 0.56592-0.45874 1.0247-1.0246 1.0247-0.5659 0-1.0246-0.45874-1.0246-1.0247 0-0.5658 0.45874-1.0245 1.0246-1.0245 0.56589 0 1.0246 0.45874 1.0246 1.0245z"/>
<path d="m36.414 592.29c0 0.56592-0.45874 1.0247-1.0246 1.0247-0.5659 0-1.0246-0.45874-1.0246-1.0247 0-0.5658 0.45874-1.0245 1.0246-1.0245 0.56589 0 1.0246 0.45874 1.0246 1.0245z"/>
<g stroke-width="1px">
<path d="m29.156 591.83c-5.738-3.4838-5.738-3.2788-5.738-3.2788"/>
<path d="m29.623 592.03c5.738-3.4838 5.738-3.2789 5.738-3.2789"/>
<g transform="matrix(1 0 0 -1 0 983.87)">
<path d="m29.156 391.12c-5.738-3.4838-5.738-3.2788-5.738-3.2788"/>
<path d="m29.623 391.33c5.738-3.4838 5.738-3.2788 5.738-3.2788"/>
</g>
</g>
<path d="m30.414 587.11c0 0.56592-0.45874 1.0247-1.0246 1.0247-0.5659 0-1.0246-0.45874-1.0246-1.0247s0.45874-1.0247 1.0246-1.0247c0.56589 0 1.0246 0.45874 1.0246 1.0247z"/>
<path d="m24.414 592.29c0 0.56592-0.45874 1.0247-1.0246 1.0247-0.5659 0-1.0246-0.45874-1.0246-1.0247 0-0.5658 0.45874-1.0245 1.0246-1.0245 0.56589 0 1.0246 0.45874 1.0246 1.0245z"/>
<path d="m36.414 592.29c0 0.56592-0.45874 1.0247-1.0246 1.0247-0.5659 0-1.0246-0.45874-1.0246-1.0247 0-0.5658 0.45874-1.0245 1.0246-1.0245 0.56589 0 1.0246 0.45874 1.0246 1.0245z"/>
</g>
<path d="m268.85 443.54c-10.254-0.49023-9.8686-0.81128-9.8686-0.81128" fill="#7f003f" stroke-width="1px"/>
<path d="m258.98 442.73c10.254 0.4902 9.8686 0.81128 9.8686 0.81128" fill="#7f003f" stroke-width="1px"/>
<path d="m268.85 443.54c-10.254-0.49023-9.8686-0.81128-9.8686-0.81128" fill="#7f003f" stroke-width="1px"/>
<path d="m269.23 443.89c-0.12284 7.8023-0.1175 7.4631-0.1175 7.4631" fill="#7f003f" stroke-width="1px"/>
<path d="m261.28 393.27 9.4995 0.11465 1.2834-9.1048" fill="#7f003f" stroke-width="1px"/>
<path d="m313.83 386.96s0.7168 2.7501 1.776 7.8931l7.5899 0.7023" fill="#7f003f" stroke-width="1px"/>
<path d="m312.06 451.03 1.6259-6.712 9.1304-0.58197" fill="#7f003f" stroke-width="1px"/>
</g>
<g stroke="#191919">
<g transform="matrix(-.92366 -.81071 .94119 -1.0055 -30.34 817.88)" fill="none">
<g stroke-linecap="round" stroke-width="2">
<path d="m117.2 396.75s-20.47-4.2854-25.904-12.118c-2.0356-2.9344-3.5669-7.4954-0.85316-10.68 2.7137-3.1849 7.4598-2.3971 10.68-0.85312 8.5959 4.121 16.077 23.651 16.077 23.651z" fill="#ff7f00"/>
<path d="m118.73 396.75s20.47-4.2854 25.904-12.118c2.0356-2.9344 3.5668-7.4954 0.85315-10.68-2.7137-3.1849-7.4598-2.3971-10.68-0.85312-8.5959 4.121-16.076 23.651-16.076 23.651z" fill="#3f7f00"/>
</g>
<g transform="matrix(1 0 0 -1 -192.03 1427.9)" stroke-linecap="round" stroke-width="2">
<path d="m309.23 1032.2s-20.47-4.2854-25.904-12.118c-2.0356-2.9344-3.5669-7.4954-0.85321-10.68 2.7137-3.1848 7.4598-2.397 10.68-0.853 8.5959 4.1208 16.076 23.651 16.076 23.651z" fill="#faa"/>
<path d="m310.76 1032.2s20.47-4.2854 25.904-12.118c2.0356-2.9344 3.5668-7.4954 0.85315-10.68-2.7137-3.1848-7.4598-2.397-10.68-0.853-8.5959 4.1208-16.077 23.651-16.077 23.651z" fill="#7f003f"/>
</g>
<path d="m120.56 394.94 21.517-18.853" fill="#00f" stroke-width="1px"/>
<path d="m115.26 395.14-21.517-18.853" fill="#ff7f00" stroke-width="1px"/>
<path d="m115.46 396.9-21.517 18.853" fill="#ff7f00" stroke-width="1px"/>
<path d="m119.94 396.9 21.517 18.853" fill="#ff7f00" stroke-width="1px"/>
<g fill="#ff7f00">
<path d="m118.3 373.99v43.855" stroke-width="1px"/>
<g stroke-width="1px">
<path d="m117.89 374.24c-5.738-3.4838-5.738-3.2788-5.738-3.2788"/>
<path d="m118.36 374.45c5.738-3.4838 5.738-3.2788 5.738-3.2788"/>
<g transform="matrix(1 0 0 -1 0 983.87)">
<path d="m117.89 608.71c-5.738-3.4838-5.738-3.2788-5.738-3.2788"/>
<path d="m118.36 608.91c5.738-3.4838 5.738-3.2789 5.738-3.2789"/>
</g>
</g>
<g stroke-width="1px">
<path d="m117.89 417.16c-5.738 3.4838-5.738 3.2788-5.738 3.2788"/>
<path d="m118.36 416.96c5.738 3.4838 5.738 3.2789 5.738 3.2789"/>
<path d="m117.69 416.86c-5.738-3.4837-5.738-3.2788-5.738-3.2788"/>
<path d="m118.16 417.06c5.738-3.4838 5.738-3.2788 5.738-3.2788"/>
</g>
<path d="m119.15 369.53c0 0.56586-0.45875 1.0246-1.0246 1.0246s-1.0246-0.45877-1.0246-1.0246c0-0.56592 0.45875-1.0246 1.0246-1.0246s1.0246 0.45871 1.0246 1.0246z"/>
<path d="m119.15 421.53c0 0.56586-0.45875 1.0246-1.0246 1.0246s-1.0246-0.45877-1.0246-1.0246c0-0.56592 0.45875-1.0246 1.0246-1.0246s1.0246 0.45871 1.0246 1.0246z"/>
<path d="m113.15 374.7c0 0.56592-0.45875 1.0247-1.0246 1.0247s-1.0246-0.45874-1.0246-1.0247c0-0.56586 0.45875-1.0246 1.0246-1.0246s1.0246 0.45874 1.0246 1.0246z"/>
<path d="m125.15 374.7c0 0.56592-0.45874 1.0247-1.0246 1.0247-0.56591 0-1.0246-0.45874-1.0246-1.0247 0-0.56586 0.45874-1.0246 1.0246-1.0246 0.5659 0 1.0246 0.45874 1.0246 1.0246z"/>
<path d="m113.15 416.7c0 0.56592-0.45875 1.0247-1.0246 1.0247s-1.0246-0.45874-1.0246-1.0247c0-0.56586 0.45875-1.0246 1.0246-1.0246s1.0246 0.45874 1.0246 1.0246z"/>
<path d="m125.15 416.7c0 0.56592-0.45874 1.0247-1.0246 1.0247-0.56591 0-1.0246-0.45874-1.0246-1.0247 0-0.56586 0.45874-1.0246 1.0246-1.0246 0.5659 0 1.0246 0.45874 1.0246 1.0246z"/>
</g>
<path d="m118.3 373.99v43.855" fill="#ff7f00" stroke-width="1px"/>
<g fill="#ff7f00" stroke-width="1px">
<path d="m117.89 374.24c-5.738-3.4838-5.738-3.2788-5.738-3.2788"/>
<path d="m118.36 374.45c5.738-3.4838 5.738-3.2788 5.738-3.2788"/>
<g transform="matrix(1 0 0 -1 0 983.87)">
<path d="m117.89 608.71c-5.738-3.4838-5.738-3.2788-5.738-3.2788"/>
<path d="m118.36 608.91c5.738-3.4838 5.738-3.2789 5.738-3.2789"/>
</g>
</g>
<g fill="#ff7f00" stroke-width="1px">
<path d="m117.89 417.16c-5.738 3.4838-5.738 3.2788-5.738 3.2788"/>
<path d="m118.36 416.96c5.738 3.4838 5.738 3.2789 5.738 3.2789"/>
<path d="m117.69 416.86c-5.738-3.4837-5.738-3.2788-5.738-3.2788"/>
<path d="m118.16 417.06c5.738-3.4838 5.738-3.2788 5.738-3.2788"/>
</g>
<path d="m119.15 369.53c0 0.56586-0.45875 1.0246-1.0246 1.0246s-1.0246-0.45877-1.0246-1.0246c0-0.56592 0.45875-1.0246 1.0246-1.0246s1.0246 0.45871 1.0246 1.0246z" fill="#ff7f00"/>
<path d="m119.15 421.53c0 0.56586-0.45875 1.0246-1.0246 1.0246s-1.0246-0.45877-1.0246-1.0246c0-0.56592 0.45875-1.0246 1.0246-1.0246s1.0246 0.45871 1.0246 1.0246z" fill="#ff7f00"/>
<path d="m113.15 374.7c0 0.56592-0.45875 1.0247-1.0246 1.0247s-1.0246-0.45874-1.0246-1.0247c0-0.56586 0.45875-1.0246 1.0246-1.0246s1.0246 0.45874 1.0246 1.0246z" fill="#ff7f00"/>
<path d="m125.15 374.7c0 0.56592-0.45874 1.0247-1.0246 1.0247-0.56591 0-1.0246-0.45874-1.0246-1.0247 0-0.56586 0.45874-1.0246 1.0246-1.0246 0.5659 0 1.0246 0.45874 1.0246 1.0246z" fill="#ff7f00"/>
<path d="m113.15 416.7c0 0.56592-0.45875 1.0247-1.0246 1.0247s-1.0246-0.45874-1.0246-1.0247c0-0.56586 0.45875-1.0246 1.0246-1.0246s1.0246 0.45874 1.0246 1.0246z" fill="#ff7f00"/>
<path d="m125.15 416.7c0 0.56592-0.45874 1.0247-1.0246 1.0247-0.56591 0-1.0246-0.45874-1.0246-1.0247 0-0.56586 0.45874-1.0246 1.0246-1.0246 0.5659 0 1.0246 0.45874 1.0246 1.0246z" fill="#ff7f00"/>
<g fill="#ff7f00" stroke-width="1px">
<path d="m117.89 374.24c-5.738-3.4838-5.738-3.2788-5.738-3.2788"/>
<path d="m118.36 374.45c5.738-3.4838 5.738-3.2788 5.738-3.2788"/>
<g transform="matrix(1 0 0 -1 0 983.87)">
<path d="m117.89 608.71c-5.738-3.4838-5.738-3.2788-5.738-3.2788"/>
<path d="m118.36 608.91c5.738-3.4838 5.738-3.2789 5.738-3.2789"/>
</g>
</g>
<path d="m119.15 369.53c0 0.56586-0.45875 1.0246-1.0246 1.0246s-1.0246-0.45877-1.0246-1.0246c0-0.56592 0.45875-1.0246 1.0246-1.0246s1.0246 0.45871 1.0246 1.0246z" fill="#ff7f00"/>
<path d="m113.15 374.7c0 0.56592-0.45875 1.0247-1.0246 1.0247s-1.0246-0.45874-1.0246-1.0247c0-0.56586 0.45875-1.0246 1.0246-1.0246s1.0246 0.45874 1.0246 1.0246z" fill="#ff7f00"/>
<path d="m125.15 374.7c0 0.56592-0.45874 1.0247-1.0246 1.0247-0.56591 0-1.0246-0.45874-1.0246-1.0247 0-0.56586 0.45874-1.0246 1.0246-1.0246 0.5659 0 1.0246 0.45874 1.0246 1.0246z" fill="#ff7f00"/>
</g>
<g transform="matrix(.94119 -1.0055 .92366 .81071 -168.37 -75.566)" fill="#ff7f00">
<g stroke-width="1px">
<path d="m-26.895 430.66c-5.738-3.4838-5.738-3.2788-5.738-3.2788"/>
<path d="m-26.428 430.87c5.738-3.4838 5.738-3.2788 5.738-3.2788"/>
<g transform="matrix(1 0 0 -1 0 983.87)">
<path d="m-26.895 552.29c-5.738-3.4838-5.738-3.2789-5.738-3.2789"/>
<path d="m-26.428 552.49c5.738-3.4838 5.738-3.2788 5.738-3.2788"/>
</g>
</g>
<path d="m-25.637 425.95c0 0.56589-0.45875 1.0246-1.0246 1.0246-0.56589 0-1.0246-0.45874-1.0246-1.0246s0.45875-1.0246 1.0246-1.0246c0.56589 0 1.0246 0.45874 1.0246 1.0246z"/>
<path d="m-31.637 431.13c0 0.56585-0.45875 1.0246-1.0246 1.0246s-1.0246-0.45874-1.0246-1.0246c0-0.56592 0.45875-1.0247 1.0246-1.0247s1.0246 0.45874 1.0246 1.0247z"/>
<path d="m-19.637 431.13c0 0.56585-0.45875 1.0246-1.0246 1.0246-0.56589 0-1.0246-0.45874-1.0246-1.0246 0-0.56592 0.45875-1.0247 1.0246-1.0247 0.56589 0 1.0246 0.45874 1.0246 1.0247z"/>
<g stroke-width="1px">
<path d="m-26.895 430.66c-5.738-3.4838-5.738-3.2788-5.738-3.2788"/>
<path d="m-26.428 430.87c5.738-3.4838 5.738-3.2788 5.738-3.2788"/>
<g transform="matrix(1 0 0 -1 0 983.87)">
<path d="m-26.895 552.29c-5.738-3.4838-5.738-3.2789-5.738-3.2789"/>
<path d="m-26.428 552.49c5.738-3.4838 5.738-3.2788 5.738-3.2788"/>
</g>
</g>
<path d="m-25.637 425.95c0 0.56589-0.45875 1.0246-1.0246 1.0246-0.56589 0-1.0246-0.45874-1.0246-1.0246s0.45875-1.0246 1.0246-1.0246c0.56589 0 1.0246 0.45874 1.0246 1.0246z"/>
<path d="m-31.637 431.13c0 0.56585-0.45875 1.0246-1.0246 1.0246s-1.0246-0.45874-1.0246-1.0246c0-0.56592 0.45875-1.0247 1.0246-1.0247s1.0246 0.45874 1.0246 1.0247z"/>
<path d="m-19.637 431.13c0 0.56585-0.45875 1.0246-1.0246 1.0246-0.56589 0-1.0246-0.45874-1.0246-1.0246 0-0.56592 0.45875-1.0247 1.0246-1.0247 0.56589 0 1.0246 0.45874 1.0246 1.0247z"/>
</g>
<path d="m260.77 349.22c-56.496-49.588-56.689-49.382-56.689-49.382" fill="#ff7f00" stroke-width="1.0613px"/>
<g transform="matrix(.94119 -1.0055 -.92366 -.81071 816.49 788.48)" fill="#ff7f00">
<g stroke-width="1px">
<path d="m-26.895 574.83c-5.738-3.4838-5.738-3.2788-5.738-3.2788"/>
<path d="m-26.428 575.03c5.738-3.4838 5.738-3.2789 5.738-3.2789"/>
<g transform="matrix(1 0 0 -1 0 983.87)">
<path d="m-26.895 408.12c-5.738-3.4838-5.738-3.2788-5.738-3.2788"/>
<path d="m-26.428 408.33c5.738-3.4838 5.738-3.2788 5.738-3.2788"/>
</g>
</g>
<path d="m-25.637 570.11c0 0.56592-0.45875 1.0247-1.0246 1.0247-0.56589 0-1.0246-0.45874-1.0246-1.0247s0.45875-1.0247 1.0246-1.0247c0.56589 0 1.0246 0.45874 1.0246 1.0247z"/>
<path d="m-31.637 575.29c0 0.56592-0.45875 1.0247-1.0246 1.0247s-1.0246-0.45874-1.0246-1.0247c0-0.56579 0.45875-1.0245 1.0246-1.0245s1.0246 0.45874 1.0246 1.0245z"/>
<path d="m-19.637 575.29c0 0.56592-0.45875 1.0247-1.0246 1.0247-0.56589 0-1.0246-0.45874-1.0246-1.0247 0-0.56579 0.45875-1.0245 1.0246-1.0245 0.56589 0 1.0246 0.45874 1.0246 1.0245z"/>
<g stroke-width="1px">
<path d="m-26.895 574.83c-5.738-3.4838-5.738-3.2788-5.738-3.2788"/>
<path d="m-26.428 575.03c5.738-3.4838 5.738-3.2789 5.738-3.2789"/>
<g transform="matrix(1 0 0 -1 0 983.87)">
<path d="m-26.895 408.12c-5.738-3.4838-5.738-3.2788-5.738-3.2788"/>
<path d="m-26.428 408.33c5.738-3.4838 5.738-3.2788 5.738-3.2788"/>
</g>
</g>
<path d="m-25.637 570.11c0 0.56592-0.45875 1.0247-1.0246 1.0247-0.56589 0-1.0246-0.45874-1.0246-1.0247s0.45875-1.0247 1.0246-1.0247c0.56589 0 1.0246 0.45874 1.0246 1.0247z"/>
<path d="m-31.637 575.29c0 0.56592-0.45875 1.0247-1.0246 1.0247s-1.0246-0.45874-1.0246-1.0247c0-0.56579 0.45875-1.0245 1.0246-1.0245s1.0246 0.45874 1.0246 1.0245z"/>
<path d="m-19.637 575.29c0 0.56592-0.45875 1.0247-1.0246 1.0247-0.56589 0-1.0246-0.45874-1.0246-1.0247 0-0.56579 0.45875-1.0245 1.0246-1.0245 0.56589 0 1.0246 0.45874 1.0246 1.0245z"/>
</g>
<path d="m235.94 349.71c-5.2077 5.5632-5.2041 5.191-5.2041 5.191" fill="#ff7f00" stroke-width="1px"/>
<path d="m230.74 354.9c5.2077-5.5632 5.2041-5.191 5.2041-5.191" fill="#ff7f00" stroke-width="1px"/>
<path d="m235.94 349.71c-5.2077 5.5632-5.2041 5.191-5.2041 5.191" fill="#ff7f00" stroke-width="1px"/>
<path d="m236.33 349.67c4.3536 3.8212 4.1643 3.655 4.1643 3.655" fill="#ff7f00" stroke-width="1px"/>
<path d="m203.88 329.82 4.6326-5.3173-4.532-5.1038" fill="#ff7f00" stroke-width="1px"/>
<path d="m225.57 297.07s1.9 0.91699 5.3179 2.7909l4.0468-3.9548" fill="#ff7f00" stroke-width="1px"/>
<path d="m260.96 328.88-3.0142-4.1469c4.0612-5.4435 4.0612-5.4435 4.0612-5.4435" fill="#ff7f00" stroke-width="1px"/>
</g>
<g stroke="#191919">
<g transform="matrix(-.23808 .74814 -.82942 -.29351 571.41 191.71)" fill="none">
<g stroke-linecap="round" stroke-width="2">
<path d="m196.12 351.97s-20.47-4.2854-25.904-12.118c-2.0356-2.9344-3.5669-7.4954-0.85318-10.68 2.7137-3.1849 7.4598-2.3971 10.68-0.85314 8.5959 4.121 16.077 23.651 16.077 23.651z" fill="#ff007f"/>
<path d="m197.64 351.97s20.47-4.2854 25.904-12.118c2.0356-2.9344 3.5668-7.4954 0.85315-10.68-2.7137-3.1849-7.4598-2.3971-10.68-0.85314-8.5959 4.121-16.076 23.651-16.076 23.651z" fill="#003f7f"/>
</g>
<g transform="matrix(1 0 0 -1 -192.03 1427.9)" stroke-linecap="round" stroke-width="2">
<path d="m388.15 1077s-20.47-4.2854-25.904-12.118c-2.0356-2.9345-3.5669-7.4954-0.85321-10.68 2.7137-3.1848 7.4598-2.397 10.68-0.8531 8.5959 4.1209 16.076 23.651 16.076 23.651z" fill="#ff7f00"/>
<path d="m389.67 1077s20.47-4.2854 25.904-12.118c2.0356-2.9345 3.5668-7.4954 0.85314-10.68-2.7137-3.1848-7.4598-2.397-10.68-0.8531-8.5959 4.1209-16.077 23.651-16.077 23.651z" fill="#3f007f"/>
</g>
<path d="m199.47 350.16 21.517-18.853" fill="#3f007f" stroke-width="1px"/>
<path d="m194.17 350.36-21.517-18.853" fill="#3f007f" stroke-width="1px"/>
<path d="m194.38 352.13-21.517 18.853" fill="#3f007f" stroke-width="1px"/>
<path d="m198.86 352.13 21.517 18.853" fill="#3f007f" stroke-width="1px"/>
<g fill="#3f007f">
<path d="m197.22 329.21v43.855" stroke-width="1px"/>
<g stroke-width="1px">
<path d="m196.81 329.46c-5.738-3.4838-5.738-3.2788-5.738-3.2788"/>
<path d="m197.28 329.67c5.738-3.4838 5.738-3.2789 5.738-3.2789"/>
<g transform="matrix(1 0 0 -1 0 983.87)">
<path d="m196.81 653.49c-5.738-3.4838-5.738-3.2788-5.738-3.2788"/>
<path d="m197.28 653.69c5.738-3.4838 5.738-3.2789 5.738-3.2789"/>
</g>
</g>
<g stroke-width="1px">
<path d="m196.81 372.39c-5.738 3.4838-5.738 3.2788-5.738 3.2788"/>
<path d="m197.28 372.18c5.738 3.4838 5.738 3.2789 5.738 3.2789"/>
<path d="m196.6 372.08c-5.738-3.4838-5.738-3.2788-5.738-3.2788"/>
<path d="m197.07 372.28c5.738-3.4838 5.738-3.2789 5.738-3.2789"/>
</g>
<path d="m198.07 324.75c0 0.56585-0.45877 1.0246-1.0246 1.0246-0.56589 0-1.0246-0.45874-1.0246-1.0246 0-0.56592 0.45874-1.0247 1.0246-1.0247 0.56588 0 1.0246 0.45874 1.0246 1.0247z"/>
<path d="m198.07 376.75c0 0.56585-0.45877 1.0246-1.0246 1.0246-0.56589 0-1.0246-0.45874-1.0246-1.0246 0-0.56592 0.45874-1.0247 1.0246-1.0247 0.56588 0 1.0246 0.45874 1.0246 1.0247z"/>
<path d="m192.07 329.92c0 0.56592-0.45877 1.0247-1.0246 1.0247-0.56589 0-1.0246-0.45874-1.0246-1.0247 0-0.56586 0.45874-1.0246 1.0246-1.0246 0.56588 0 1.0246 0.45874 1.0246 1.0246z"/>
<path d="m204.07 329.92c0 0.56592-0.45874 1.0247-1.0246 1.0247-0.56589 0-1.0246-0.45874-1.0246-1.0247 0-0.56586 0.45874-1.0246 1.0246-1.0246 0.56591 0 1.0246 0.45874 1.0246 1.0246z"/>
<path d="m192.07 371.92c0 0.56592-0.45877 1.0247-1.0246 1.0247-0.56589 0-1.0246-0.45874-1.0246-1.0247 0-0.56586 0.45874-1.0246 1.0246-1.0246 0.56588 0 1.0246 0.45874 1.0246 1.0246z"/>
<path d="m204.07 371.92c0 0.56592-0.45874 1.0247-1.0246 1.0247-0.56589 0-1.0246-0.45874-1.0246-1.0247 0-0.56586 0.45874-1.0246 1.0246-1.0246 0.56591 0 1.0246 0.45874 1.0246 1.0246z"/>
</g>
<path d="m197.22 329.21v43.855" fill="#3f007f" stroke-width="1px"/>
<g fill="#3f007f" stroke-width="1px">
<path d="m196.81 329.46c-5.738-3.4838-5.738-3.2788-5.738-3.2788"/>
<path d="m197.28 329.67c5.738-3.4838 5.738-3.2789 5.738-3.2789"/>
<g transform="matrix(1 0 0 -1 0 983.87)">
<path d="m196.81 653.49c-5.738-3.4838-5.738-3.2788-5.738-3.2788"/>
<path d="m197.28 653.69c5.738-3.4838 5.738-3.2789 5.738-3.2789"/>
</g>
</g>
<g fill="#3f007f" stroke-width="1px">
<path d="m196.81 372.39c-5.738 3.4838-5.738 3.2788-5.738 3.2788"/>
<path d="m197.28 372.18c5.738 3.4838 5.738 3.2789 5.738 3.2789"/>
<path d="m196.6 372.08c-5.738-3.4838-5.738-3.2788-5.738-3.2788"/>
<path d="m197.07 372.28c5.738-3.4838 5.738-3.2789 5.738-3.2789"/>
</g>
<path d="m198.07 324.75c0 0.56585-0.45877 1.0246-1.0246 1.0246-0.56589 0-1.0246-0.45874-1.0246-1.0246 0-0.56592 0.45874-1.0247 1.0246-1.0247 0.56588 0 1.0246 0.45874 1.0246 1.0247z" fill="#3f007f"/>
<path d="m198.07 376.75c0 0.56585-0.45877 1.0246-1.0246 1.0246-0.56589 0-1.0246-0.45874-1.0246-1.0246 0-0.56592 0.45874-1.0247 1.0246-1.0247 0.56588 0 1.0246 0.45874 1.0246 1.0247z" fill="#3f007f"/>
<path d="m192.07 329.92c0 0.56592-0.45877 1.0247-1.0246 1.0247-0.56589 0-1.0246-0.45874-1.0246-1.0247 0-0.56586 0.45874-1.0246 1.0246-1.0246 0.56588 0 1.0246 0.45874 1.0246 1.0246z" fill="#3f007f"/>
<path d="m204.07 329.92c0 0.56592-0.45874 1.0247-1.0246 1.0247-0.56589 0-1.0246-0.45874-1.0246-1.0247 0-0.56586 0.45874-1.0246 1.0246-1.0246 0.56591 0 1.0246 0.45874 1.0246 1.0246z" fill="#3f007f"/>
<path d="m192.07 371.92c0 0.56592-0.45877 1.0247-1.0246 1.0247-0.56589 0-1.0246-0.45874-1.0246-1.0247 0-0.56586 0.45874-1.0246 1.0246-1.0246 0.56588 0 1.0246 0.45874 1.0246 1.0246z" fill="#3f007f"/>
<path d="m204.07 371.92c0 0.56592-0.45874 1.0247-1.0246 1.0247-0.56589 0-1.0246-0.45874-1.0246-1.0247 0-0.56586 0.45874-1.0246 1.0246-1.0246 0.56591 0 1.0246 0.45874 1.0246 1.0246z" fill="#3f007f"/>
<g fill="#3f007f" stroke-width="1px">
<path d="m196.81 329.46c-5.738-3.4838-5.738-3.2788-5.738-3.2788"/>
<path d="m197.28 329.67c5.738-3.4838 5.738-3.2789 5.738-3.2789"/>
<g transform="matrix(1 0 0 -1 0 983.87)">
<path d="m196.81 653.49c-5.738-3.4838-5.738-3.2788-5.738-3.2788"/>
<path d="m197.28 653.69c5.738-3.4838 5.738-3.2789 5.738-3.2789"/>
</g>
</g>
<path d="m198.07 324.75c0 0.56585-0.45877 1.0246-1.0246 1.0246-0.56589 0-1.0246-0.45874-1.0246-1.0246 0-0.56592 0.45874-1.0247 1.0246-1.0247 0.56588 0 1.0246 0.45874 1.0246 1.0247z" fill="#3f007f"/>
<path d="m192.07 329.92c0 0.56592-0.45877 1.0247-1.0246 1.0247-0.56589 0-1.0246-0.45874-1.0246-1.0247 0-0.56586 0.45874-1.0246 1.0246-1.0246 0.56588 0 1.0246 0.45874 1.0246 1.0246z" fill="#3f007f"/>
<path d="m204.07 329.92c0 0.56592-0.45874 1.0247-1.0246 1.0247-0.56589 0-1.0246-0.45874-1.0246-1.0247 0-0.56586 0.45874-1.0246 1.0246-1.0246 0.56591 0 1.0246 0.45874 1.0246 1.0246z" fill="#3f007f"/>
</g>
<g transform="matrix(-.82942 -.29351 .23808 -.74814 83.809 501.2)" fill="#3f007f">
<g stroke-width="1px">
<path d="m-71.435 352.04c-5.738-3.4838-5.738-3.2788-5.738-3.2788"/>
<path d="m-70.968 352.25c5.738-3.4838 5.738-3.2788 5.738-3.2788"/>
<g transform="matrix(1 0 0 -1 0 983.87)">
<path d="m-71.435 630.9c-5.738-3.4838-5.738-3.2789-5.738-3.2789"/>
<path d="m-70.968 631.11c5.738-3.4838 5.738-3.2788 5.738-3.2788"/>
</g>
</g>
<path d="m-70.177 347.33c0 0.56589-0.45875 1.0246-1.0246 1.0246-0.56589 0-1.0246-0.45874-1.0246-1.0246s0.45875-1.0246 1.0246-1.0246c0.5659 0 1.0246 0.45874 1.0246 1.0246z"/>
<path d="m-76.177 352.51c0 0.56585-0.45875 1.0246-1.0246 1.0246-0.56589 0-1.0246-0.45874-1.0246-1.0246 0-0.56592 0.45875-1.0247 1.0246-1.0247 0.5659 0 1.0246 0.45874 1.0246 1.0247z"/>
<path d="m-64.177 352.51c0 0.56585-0.45875 1.0246-1.0246 1.0246-0.56589 0-1.0246-0.45874-1.0246-1.0246 0-0.56592 0.45875-1.0247 1.0246-1.0247 0.5659 0 1.0246 0.45874 1.0246 1.0247z"/>
<g stroke-width="1px">
<path d="m-71.435 352.04c-5.738-3.4838-5.738-3.2788-5.738-3.2788"/>
<path d="m-70.968 352.25c5.738-3.4838 5.738-3.2788 5.738-3.2788"/>
<g transform="matrix(1 0 0 -1 0 983.87)">
<path d="m-71.435 630.9c-5.738-3.4838-5.738-3.2789-5.738-3.2789"/>
<path d="m-70.968 631.11c5.738-3.4838 5.738-3.2788 5.738-3.2788"/>
</g>
</g>
<path d="m-70.177 347.33c0 0.56589-0.45875 1.0246-1.0246 1.0246-0.56589 0-1.0246-0.45874-1.0246-1.0246s0.45875-1.0246 1.0246-1.0246c0.5659 0 1.0246 0.45874 1.0246 1.0246z"/>
<path d="m-76.177 352.51c0 0.56585-0.45875 1.0246-1.0246 1.0246-0.56589 0-1.0246-0.45874-1.0246-1.0246 0-0.56592 0.45875-1.0247 1.0246-1.0247 0.5659 0 1.0246 0.45874 1.0246 1.0247z"/>
<path d="m-64.177 352.51c0 0.56585-0.45875 1.0246-1.0246 1.0246-0.56589 0-1.0246-0.45874-1.0246-1.0246 0-0.56592 0.45875-1.0247 1.0246-1.0247 0.5659 0 1.0246 0.45874 1.0246 1.0247z"/>
</g>
<path d="m240.81 213.18c-14.562 45.761-14.392 45.821-14.392 45.821" fill="#3f007f" stroke-width="1.0613px"/>
<g transform="matrix(-.82942 -.29351 -.23808 .74814 337.44 -296.41)" fill="#3f007f">
<g stroke-width="1px">
<path d="m-71.435 653.45c-5.738-3.4838-5.738-3.2788-5.738-3.2788"/>
<path d="m-70.968 653.65c5.738-3.4838 5.738-3.2789 5.738-3.2789"/>
<g transform="matrix(1 0 0 -1 0 983.87)">
<path d="m-71.435 329.5c-5.738-3.4838-5.738-3.2788-5.738-3.2788"/>
<path d="m-70.968 329.71c5.738-3.4838 5.738-3.2788 5.738-3.2788"/>
</g>
</g>
<path d="m-70.177 648.73c0 0.56592-0.45875 1.0247-1.0246 1.0247-0.56589 0-1.0246-0.45874-1.0246-1.0247s0.45875-1.0247 1.0246-1.0247c0.5659 0 1.0246 0.45874 1.0246 1.0247z"/>
<path d="m-76.177 653.91c0 0.56592-0.45875 1.0247-1.0246 1.0247-0.56589 0-1.0246-0.45874-1.0246-1.0247 0-0.56579 0.45875-1.0245 1.0246-1.0245 0.5659 0 1.0246 0.45874 1.0246 1.0245z"/>
<path d="m-64.177 653.91c0 0.56592-0.45875 1.0247-1.0246 1.0247-0.56589 0-1.0246-0.45874-1.0246-1.0247 0-0.56579 0.45875-1.0245 1.0246-1.0245 0.5659 0 1.0246 0.45874 1.0246 1.0245z"/>
<g stroke-width="1px">
<path d="m-71.435 653.45c-5.738-3.4838-5.738-3.2788-5.738-3.2788"/>
<path d="m-70.968 653.65c5.738-3.4838 5.738-3.2789 5.738-3.2789"/>
<g transform="matrix(1 0 0 -1 0 983.87)">
<path d="m-71.435 329.5c-5.738-3.4838-5.738-3.2788-5.738-3.2788"/>
<path d="m-70.968 329.71c5.738-3.4838 5.738-3.2788 5.738-3.2788"/>
</g>
</g>
<path d="m-70.177 648.73c0 0.56592-0.45875 1.0247-1.0246 1.0247-0.56589 0-1.0246-0.45874-1.0246-1.0247s0.45875-1.0247 1.0246-1.0247c0.5659 0 1.0246 0.45874 1.0246 1.0247z"/>
<path d="m-76.177 653.91c0 0.56592-0.45875 1.0247-1.0246 1.0247-0.56589 0-1.0246-0.45874-1.0246-1.0247 0-0.56579 0.45875-1.0245 1.0246-1.0245 0.5659 0 1.0246 0.45874 1.0246 1.0245z"/>
<path d="m-64.177 653.91c0 0.56592-0.45875 1.0247-1.0246 1.0247-0.56589 0-1.0246-0.45874-1.0246-1.0247 0-0.56579 0.45875-1.0245 1.0246-1.0245 0.5659 0 1.0246 0.45874 1.0246 1.0245z"/>
</g>
<path d="m247.45 227.59c4.5892 1.624 4.3704 1.7172 4.3704 1.7172" fill="#3f007f" stroke-width="1px"/>
<path d="m251.83 229.3c-4.5892-1.624-4.3704-1.7172-4.3704-1.7172" fill="#3f007f" stroke-width="1px"/>
<path d="m247.45 227.59c4.5892 1.624 4.3704 1.7172 4.3704 1.7172" fill="#007fff" stroke-width="1px"/>
<path d="m247.33 227.37c1.1221-3.5262 1.0733-3.3729 1.0733-3.3729" fill="#3f007f" stroke-width="1px"/>
<path d="m244.02 251.45-4.298-1.3504-1.8272 3.9591" fill="#3f007f" stroke-width="1px"/>
<path d="m219.3 247.13s0.0504-1.3468 0.27228-3.827l-3.3506-1.3562" fill="#3f007f" stroke-width="1px"/>
<path d="m228.86 218.28-1.6556 2.8257-4.2257-0.98363" fill="#3f007f" stroke-width="1px"/>
</g>
</g>
</svg>
